<?xml version="1.0" encoding="utf-8"?>
<!DOCTYPE svg PUBLIC "-//W3C//DTD SVG 1.0//EN" "http://www.w3.org/TR/2001/REC-SVG-20010904/DTD/svg10.dtd">
<svg version="1.0" xmlns="http://www.w3.org/2000/svg" width="595px" height="397px" viewBox="0 0 595 397" preserveAspectRatio="xMidYMid meet">
 <g fill="#fffffe">
  <path d="M0 198.33 l0 -198.33 297.50 0 297.50 0 0 198.33 0 198.33 -297.50 0 -297.50 0 0 -198.33z m293.69 171.63 l0 -9.06 3.81 0 c2.10 0 6.96 -0.33 10.77 -0.72 26.51 -2.81 53.21 -12.73 74.23 -27.70 1.62 -1.14 2.77 -1.62 4.05 -1.62 l1.76 0.05 9.77 14.73 c5.39 8.10 9.87 14.78 10.01 14.78 0.14 0 6.01 -5.77 13.06 -12.82 12.82 -12.82 12.87 -12.87 11.82 -13.73 -0.52 -0.48 -6.05 -5.58 -12.21 -11.35 -13.49 -12.59 -13.06 -11.68 -7.96 -17.31 7.20 -8.06 14.73 -19.12 20.36 -29.89 10.63 -20.31 16.31 -40.38 17.93 -63.27 l0.57 -8.01 8.96 0 c8.63 0 8.96 -0.05 8.96 -0.95 0 -0.91 -0.33 -0.95 -9.06 -0.95 l-9.06 0 0 -2.05 c0 -3.67 -1.38 -16.59 -2.38 -22.50 -5.67 -32.56 -21.79 -63.22 -45.72 -86.77 -2.72 -2.67 -3.39 -3.58 -3.39 -4.77 0 -1.24 2.10 -3.53 16.93 -18.36 l16.93 -16.93 -2.72 -2.72 c-1.53 -1.53 -2.91 -2.72 -3.05 -2.67 -0.19 0.10 -8.10 7.77 -17.59 17.07 -13.35 13.11 -17.54 16.97 -18.59 17.07 -1.05 0.10 -2.43 -0.67 -6.58 -3.81 -13.11 -9.92 -32.28 -19.36 -49.30 -24.27 -10.73 -3.05 -24.84 -5.44 -36.14 -6.05 l-5.96 -0.33 -0.14 -8.92 c-0.10 -7.53 -0.24 -8.96 -0.81 -8.96 -0.62 0 -0.72 1.29 -0.72 8.30 0 4.58 -0.14 8.63 -0.29 9.06 -0.24 0.57 -1 0.76 -3.34 0.76 -4.34 0 -16.11 1.29 -22.60 2.43 -10.20 1.81 -24.84 6.10 -31.70 9.25 -1.29 0.57 -3.34 1.43 -4.53 1.86 -6.72 2.57 -22.55 11.73 -30.13 17.50 -6.15 4.72 -4.29 5.82 -24.46 -14.35 l-17.16 -17.16 -3 3 -2.96 2.96 16.93 16.93 c15.30 15.30 16.93 17.07 16.93 18.45 0 1.14 -0.38 1.91 -1.48 2.86 -2.86 2.53 -12.97 13.73 -16.64 18.50 -20.36 26.41 -32.04 58.36 -33.52 91.78 l-0.10 2.62 -8.92 0.14 c-8.58 0.10 -8.96 0.14 -8.96 1.05 0 0.91 0.33 0.95 9.06 0.95 l9.06 0 0 3.53 c0 8.49 1.91 21.26 5.01 33.47 5.86 23.22 18.16 46.34 34.28 64.55 2.67 3 3.15 3.81 3.05 5.05 -0.14 1.24 -2 3.19 -12.44 12.87 l-12.30 11.39 11.78 11.68 c6.48 6.44 12.40 12.16 13.11 12.78 l1.38 1.10 9.77 -14.78 9.77 -14.83 1.76 0 c1.38 0 3.05 0.86 8.30 4.29 18.21 11.97 39.81 20.36 61.26 23.79 7.63 1.19 15.02 1.95 19.31 1.95 l3.29 0 0 3 c0 7.68 0.62 15.11 1.29 15.11 0.48 0 0.62 -1.76 0.62 -9.06z"/>
  <path d="M278.67 358.48 c-15.26 -1.38 -29.23 -4.72 -43.34 -10.30 -11.20 -4.43 -18.93 -8.44 -29.13 -15.21 -33.99 -22.55 -57.45 -56.54 -66.17 -96.02 -6.67 -29.94 -3.91 -63.46 7.39 -91.54 8.68 -21.41 20.55 -39.05 37.04 -54.97 24.84 -23.93 55.54 -38.19 91.35 -42.34 6.77 -0.81 27.94 -0.81 35.04 -0.05 12.35 1.38 28.56 5.34 39.57 9.68 30.61 12.06 55.30 32.09 73.42 59.64 21.41 32.42 29.75 71.85 23.60 111.23 -2.48 15.92 -7.06 29.99 -14.54 44.82 -14.21 28.03 -34.57 49.39 -62.46 65.41 -17.35 9.96 -35.66 16.11 -56.73 18.98 -6.58 0.91 -28.08 1.33 -35.04 0.67z m12.54 -18.64 l0.10 -8.49 1.86 0 c1.72 0 2.38 0.43 6.82 4.43 5.72 5.15 12.44 10.87 12.54 10.73 0.05 -0.14 -1 -27.27 -1.14 -29.32 -0.05 -0.43 -0.86 -0.62 -2.48 -0.62 l-2.48 0 0.33 8.58 0.33 8.58 -1.62 0 c-1.29 0 -2.24 -0.57 -4.91 -2.96 -3.53 -3.19 -12.73 -11.16 -14.21 -12.30 -0.86 -0.67 -0.91 -0.38 -0.57 11.44 0.14 6.67 0.43 13.64 0.57 15.40 l0.29 3.24 2.24 -0.14 2.19 -0.14 0.14 -8.44z m-23.79 3.91 c1 -0.48 2.67 -1.86 3.72 -3.05 2.15 -2.43 3.24 -5.44 5.15 -14.11 0.67 -3 1.38 -6.34 1.62 -7.39 0.29 -1.05 0.38 -1.95 0.24 -2.10 -0.10 -0.10 -1.10 -0.24 -2.19 -0.24 l-2 -0.05 -2.24 9.15 c-2.62 10.87 -3 11.92 -4.91 13.06 -2.77 1.67 -8.53 0.81 -10.54 -1.57 -1.81 -2.15 -1.62 -5.96 0.72 -15.64 1.05 -4.34 1.91 -8.20 1.91 -8.63 0 -0.76 -3.15 -2.05 -3.86 -1.57 -0.19 0.10 -1.48 4.86 -2.86 10.54 -2.29 9.54 -2.43 10.54 -1.91 12.44 1.19 4.43 4.67 7.87 9.73 9.39 2.91 0.91 5.34 0.86 7.44 -0.24z m86.01 -8.68 c2.91 -0.95 3.67 -1.48 6.10 -4.15 1.57 -1.67 2.81 -3.29 2.81 -3.62 0 -0.29 -0.57 -0.81 -1.29 -1.14 -1.14 -0.52 -1.38 -0.43 -3.43 1.53 -2.86 2.67 -4.15 3.19 -8.20 3.19 -6.67 0 -10.49 -3.15 -11.20 -9.20 -0.48 -4.15 0.10 -6.82 2 -8.92 2.38 -2.62 5.10 -3.81 8.63 -3.81 l2.91 0 0.72 -2.10 0.72 -2.15 -1.91 -0.29 c-6.29 -1.10 -13.59 3.05 -16.73 9.44 -2.62 5.44 -2.05 9.92 1.95 15.16 3.10 4.15 7.15 6.29 13.16 7.06 0.24 0 1.95 -0.43 3.77 -1z m-115.47 -5.86 c1.53 -2.62 2.81 -4.91 2.81 -5.10 0 -0.19 -1.43 -1.14 -3.15 -2.10 l-3.19 -1.76 -0.86 1.14 c-0.86 1.10 -0.86 1.14 0.05 1.95 1.10 0.91 1.24 3.53 0.29 4.82 -1.38 1.76 -6.29 0.48 -9.20 -2.48 -2.05 -2 -2.67 -4.34 -2.48 -9.01 0.24 -4.39 0.86 -5.58 4.20 -7.96 1.81 -1.29 2.48 -1.43 6.05 -1.62 2.19 -0.05 4.53 0 5.15 0.14 1.72 0.43 4 2.53 5.10 4.62 0.81 1.67 1.10 1.86 2.24 1.57 2.15 -0.52 2.34 -1 1.10 -3.34 -1.38 -2.57 -4.43 -5.39 -7.58 -6.96 -1.86 -0.91 -2.91 -1.10 -6.15 -1.05 -4.77 0.10 -7.63 1.48 -11.11 5.29 -8.49 9.25 -3.48 22.41 9.92 26.13 3.62 1.05 3.81 0.91 6.82 -4.29z m143.46 -11.49 c7.87 -6.01 7.49 -5.58 6.53 -7.06 -0.48 -0.67 -1.05 -1.24 -1.33 -1.24 -0.29 0 -2 1.19 -3.86 2.62 -2.86 2.24 -3.62 2.62 -5.34 2.62 -1.72 0 -2.19 -0.24 -3.15 -1.53 -0.62 -0.86 -3.91 -5.05 -7.29 -9.34 -5.82 -7.29 -6.25 -7.72 -7.15 -7.10 -2.34 1.53 -2.24 1.76 4.24 9.92 3.43 4.29 7.49 9.49 9.01 11.49 1.53 2.05 3 3.53 3.29 3.39 0.29 -0.19 2.57 -1.86 5.05 -3.77z m-178.26 -7.68 c1.48 -6.77 1.53 -6.82 6.15 -6.82 3.81 0 3.86 0 5.96 -1.95 2.24 -2.10 4.05 -5.24 4.05 -7.15 0 -2.05 -1.91 -4.82 -6.87 -10.01 l-4.82 -5.01 -10.87 10.49 -10.87 10.44 1.33 1.38 c0.72 0.72 1.43 1.33 1.57 1.33 0.19 0 1.76 -1.29 3.48 -2.86 3 -2.77 3.19 -2.86 5.77 -2.86 l2.67 0 0 2.67 c0 1.43 -0.57 4.82 -1.29 7.44 l-1.29 4.82 1.62 1.33 c0.91 0.76 1.76 1.38 1.95 1.38 0.19 0 0.81 -2.10 1.43 -4.62z m106.51 -4.86 c19.79 -3.53 36.95 -11.73 51.73 -24.70 23.46 -20.60 36.23 -49.92 35.14 -80.43 -0.91 -25.17 -10.11 -47.34 -27.94 -67.46 -11.78 -13.25 -31.23 -24.89 -49.44 -29.61 -15.92 -4.15 -28.84 -4.62 -44.72 -1.67 -31.51 5.86 -59.17 26.60 -73.76 55.40 -8.25 16.21 -12.68 36.57 -11.35 52.40 1.10 13.54 4 24.89 9.34 36.57 9.44 20.64 25.94 37.95 46.63 49.01 10.58 5.63 25.79 10.20 38.62 11.59 5.05 0.52 20.17 -0.10 25.75 -1.10z m90.78 -6.72 c4.34 -2.19 8.10 -7.49 8.15 -11.44 0 -2 -1.76 -5.86 -3.62 -7.96 -0.76 -0.81 -4.58 -4 -8.49 -7.06 l-7.10 -5.53 -1.10 1.33 c-0.62 0.72 -1.05 1.48 -1 1.67 0.05 0.14 2.67 2.29 5.82 4.77 3.15 2.43 6.72 5.44 8.01 6.67 l2.24 2.24 0 3.77 c0 3.10 -0.19 4 -1 5.05 -1.62 2.05 -3.58 2.81 -6.67 2.53 -3.24 -0.29 -3.58 -0.52 -11.82 -7.34 -3.53 -2.96 -6.58 -5.39 -6.72 -5.34 -0.14 0 -0.72 0.62 -1.33 1.38 l-1.05 1.33 5.82 5.01 c8.30 7.01 10.82 8.82 13.25 9.63 3.05 0.95 3.53 0.91 6.63 -0.72z m-219.41 -14.78 c2.77 -1.81 5.05 -3.34 5.15 -3.34 0.33 0 12.44 -8.25 13.30 -9.06 0.86 -0.86 0.86 -0.91 -0.19 -2.38 -0.57 -0.81 -1.33 -1.38 -1.62 -1.29 -0.33 0.14 -4.62 2.96 -9.58 6.34 -5.01 3.34 -10.30 6.91 -11.82 7.96 -1.72 1.19 -2.57 2.05 -2.38 2.38 1.19 1.86 1.81 2.72 2 2.72 0.10 0 2.38 -1.48 5.15 -3.34z m-0.72 -25.46 l8.44 -9.11 -8.68 -0.52 c-15.83 -1 -25.13 -1.29 -25.13 -0.81 0 0.29 0.33 1.29 0.72 2.19 0.67 1.67 0.81 1.72 3.43 1.86 l2.72 0.14 2.72 5.48 c3.34 6.63 3.58 8.63 1.43 10.73 l-1.43 1.33 1.05 1.81 1.05 1.76 2.62 -2.91 c1.43 -1.57 6.44 -7.01 11.06 -11.97z m242.96 7.58 c3.24 -6.48 3.62 -7.82 2.96 -10.20 -0.62 -2.38 -2.57 -4.77 -4.62 -5.58 -1.33 -0.57 -1.86 -0.57 -3.58 0.05 -1.14 0.38 -2.81 0.72 -3.77 0.72 -1.62 0 -1.76 -0.14 -2.57 -2.15 -1.95 -5.20 -7.34 -5.96 -11.59 -1.67 -1.62 1.57 -7.01 11.73 -6.44 12.06 0.24 0.14 4.67 2.19 9.92 4.53 5.24 2.38 11.16 5.05 13.11 5.96 1.95 0.95 3.72 1.57 3.91 1.38 0.19 -0.19 1.38 -2.48 2.67 -5.10z m-259.26 -53.16 c0 -1.05 -0.10 -1.91 -0.19 -1.91 -0.10 0 -0.29 0.86 -0.38 1.91 -0.10 1.05 0 1.91 0.19 1.91 0.24 0 0.38 -0.86 0.38 -1.91z m255.26 -2.72 c0.43 -6.63 0.48 -6.82 2.72 -6.82 1.67 0 1.86 0.14 1.86 1.19 0 1.05 0.19 1.19 1.62 1.19 1.95 0 2 0.19 2.43 5.20 l0.38 3.86 2.05 0 c1.14 0 2.10 -0.10 2.10 -0.19 0 -0.10 -0.67 -1.72 -1.48 -3.67 -3.43 -8.30 -3.58 -10.11 -0.91 -11.97 1.05 -0.72 2.34 -2.19 2.86 -3.29 l1 -1.95 -1.29 -1.86 c-1.33 -1.95 -4.86 -3.96 -7.91 -4.48 -2.81 -0.52 -6.72 0.86 -9.20 3.29 -2.96 2.81 -2.91 3.91 0.52 7.29 2.62 2.62 2.67 2.77 2.48 4.86 -0.14 1.19 -1.10 4.39 -2.15 7.10 l-1.95 4.86 2.29 0 2.24 0 0.33 -4.62z m4.58 3.19 c0 -0.76 -0.10 -1.43 -0.19 -1.43 -0.10 0 -0.29 0.67 -0.38 1.43 -0.14 0.81 -0.05 1.43 0.19 1.43 0.19 0 0.38 -0.62 0.38 -1.43z m-263.84 -6.91 c0.29 -1.57 0.43 -1.67 2.15 -1.67 1.33 0 1.86 0.19 1.86 0.72 0 0.52 0.52 0.72 1.91 0.72 1.57 0 1.91 0.14 1.91 0.95 0 0.62 0.33 0.95 0.95 0.95 1.14 0 1.14 -0.24 0.24 -2.86 -1.14 -3.24 -0.95 -4.86 0.72 -5.96 1.72 -1.14 3.81 -4 3.81 -5.20 0 -3.19 -5.29 -6.72 -10.01 -6.67 -3.24 0 -6.72 1.62 -8.68 4.05 -1.81 2.24 -1.48 3.67 1.62 6.77 1.95 1.95 2.29 2.57 2.29 4.10 0 1 -0.33 2.72 -0.72 3.81 -0.67 1.95 -0.67 1.95 0.48 1.95 0.95 0 1.19 -0.29 1.48 -1.67z m221.84 -84.86 c0.95 -4.48 1.81 -7.44 2.34 -7.96 0.43 -0.43 2.53 -1.14 4.62 -1.53 4.67 -0.95 11.68 -2.81 11.68 -3.15 0 -0.14 -0.72 -1.05 -1.57 -2 l-1.53 -1.81 -3.58 0.95 c-1.95 0.52 -4.72 0.95 -6.05 0.95 -2.43 0 -2.53 -0.05 -2.53 -1.29 0 -0.76 0.43 -3.10 0.95 -5.29 0.52 -2.19 0.95 -4.24 0.95 -4.62 0 -0.33 -0.81 -1.29 -1.81 -2.10 l-1.81 -1.43 -1.86 8.39 c-1 4.58 -2.05 8.39 -2.34 8.49 -0.29 0.10 -4.15 1.05 -8.58 2.19 l-8.01 2.10 1.81 1.53 c0.95 0.86 2.05 1.57 2.38 1.57 0.33 0 1.95 -0.43 3.62 -0.95 1.62 -0.52 4 -0.95 5.29 -0.95 l2.24 0 0 1.81 c0 0.95 -0.43 3.58 -0.91 5.82 l-0.91 4.05 1.72 1.81 c1.19 1.24 1.81 1.57 2.05 1.19 0.19 -0.33 1 -3.81 1.81 -7.77z m-173.64 -1.62 c-4.91 -5.72 -4.91 -5.96 0.43 -10.97 4.10 -3.81 4.20 -3.86 6.63 -3.86 l2.53 0 3.43 4.05 3.48 4 1.33 -0.95 c0.76 -0.52 1.48 -1.10 1.57 -1.33 0.14 -0.19 -3.58 -4.62 -8.20 -9.87 -4.62 -5.24 -9.15 -10.35 -10.01 -11.35 l-1.53 -1.76 -1.43 1.10 c-0.76 0.62 -1.38 1.29 -1.38 1.53 -0.05 0.19 1.33 1.95 3.05 3.86 2.72 3.05 3.10 3.67 3.10 5.39 0 1.81 -0.24 2.15 -4.15 5.77 -3.96 3.67 -4.29 3.86 -6.34 3.86 -2.10 0 -2.24 -0.10 -5.20 -3.58 -1.62 -1.95 -3.05 -3.58 -3.15 -3.58 -0.10 0 -0.91 0.48 -1.81 1.10 l-1.62 1.10 5.53 6.20 c3.05 3.43 7.58 8.49 10.06 11.30 l4.48 5.15 1.43 -1.43 1.38 -1.43 -3.62 -4.29z m149.80 -19.36 c0.29 -4.20 0.86 -11.39 1.19 -15.97 0.38 -4.58 0.57 -8.44 0.52 -8.53 -0.19 -0.14 -4.58 3.10 -8.82 6.63 -1.43 1.19 -4.34 3.43 -6.44 5.01 -5.86 4.34 -11.25 8.87 -10.97 9.30 0.10 0.19 0.86 0.62 1.67 0.95 1.19 0.48 1.62 0.48 2.62 -0.19 0.72 -0.48 2.15 -0.76 3.67 -0.76 2.10 0 3.34 0.43 7.20 2.43 l4.67 2.43 -0.10 2.62 c-0.14 2.62 -0.10 2.67 1.72 3.77 1.38 0.81 1.95 0.95 2.19 0.52 0.14 -0.29 0.57 -4 0.86 -8.20z m-119.95 3.96 c1.14 -0.81 1.29 -1.19 1.29 -3.72 0 -2.72 0.05 -2.86 1.33 -3.15 0.72 -0.19 2.96 -1.14 4.96 -2.15 3 -1.53 4.20 -1.86 6.44 -1.86 2.29 0 2.91 0.19 4.05 1.29 1.33 1.29 1.33 1.29 3.10 0.43 1.43 -0.67 1.62 -0.91 1.05 -1.43 -1.86 -1.72 -14.21 -12.59 -19.17 -16.88 -3.10 -2.67 -5.96 -4.86 -6.34 -4.86 -0.72 0 -0.76 1.24 -0.48 11.82 0.14 6.48 0.29 14.11 0.29 16.93 0 5.15 0 5.15 1.10 4.82 0.57 -0.14 1.62 -0.72 2.38 -1.24z m43.48 -13.25 c3.48 -0.05 4.05 -0.38 4.05 -2.43 l0 -1.86 -6.39 0.33 -6.39 0.29 -0.29 -1.38 c-0.14 -0.76 -0.91 -6.10 -1.72 -11.87 -1.95 -14.11 -1.48 -12.73 -4.20 -12.35 -1.24 0.14 -2.29 0.33 -2.34 0.38 -0.05 0.05 0.43 3.29 1.05 7.20 0.62 3.96 1.62 10.58 2.15 14.78 0.57 4.20 1.10 7.87 1.19 8.15 0.10 0.38 1.76 0.24 5.58 -0.33 2.96 -0.48 6.25 -0.91 7.29 -0.91z m33.99 -3.86 c0.52 -2.62 1.29 -5.15 1.62 -5.53 0.48 -0.57 1.43 -0.67 5.15 -0.48 2.48 0.14 5.01 0.38 5.58 0.57 0.76 0.24 1.05 0.10 1.24 -0.57 0.14 -0.48 0.38 -1.33 0.57 -1.86 0.24 -0.95 -0.05 -1.10 -3.43 -1.86 -2.05 -0.43 -4.53 -1 -5.58 -1.24 l-1.81 -0.48 0.19 -3.24 c0.10 -1.81 0.48 -3.62 0.81 -4.05 0.81 -1 6.58 -1 11.01 -0.05 1.72 0.33 3.15 0.62 3.15 0.57 0.05 -0.05 0.29 -0.91 0.57 -1.86 0.43 -1.53 0.38 -1.81 -0.29 -2 -2.38 -0.67 -17.35 -3.72 -17.54 -3.53 -0.33 0.33 -6.82 29.18 -6.58 29.42 0.10 0.10 1 0.33 1.95 0.52 1 0.19 1.95 0.38 2.10 0.43 0.14 0 0.72 -2.10 1.29 -4.77z m-16.83 2.34 c0.10 -0.33 0.24 -7.34 0.38 -15.49 l0.19 -14.92 -1.76 0 c-3.19 0 -3.19 -0.05 -3.53 16.35 l-0.33 14.64 2.43 0 c1.53 0 2.48 -0.24 2.62 -0.57z"/>
  <path d="M204.05 295.78 c-2.05 -1.91 -2.38 -2.48 -2.38 -4 0 -1.48 0.33 -2.10 1.91 -3.53 1.67 -1.53 2.19 -1.72 4.43 -1.72 2.24 0 2.72 0.19 4 1.57 0.81 0.81 1.72 2 2 2.57 0.86 1.67 0.62 4.62 -0.48 6.05 -0.86 1.10 -1.29 1.24 -4.05 1.24 -3 0 -3.15 -0.05 -5.44 -2.19z"/>
  <path d="M294.02 304.84 c-0.19 -0.19 -0.33 -7.49 -0.33 -16.26 0 -13.78 -0.10 -15.88 -0.72 -15.88 -0.62 0 -0.72 2 -0.72 15.21 0 8.39 -0.14 15.54 -0.29 15.97 -0.67 1.81 -14.59 0.52 -25.70 -2.34 -10.58 -2.72 -20.74 -7.15 -29.75 -12.92 l-4.34 -2.81 0 -3.19 c0 -5.91 1.86 -11.59 5.05 -15.49 1.29 -1.57 2 -2.05 3.10 -2.05 1.29 0 1.38 -0.14 1.38 -1.81 0 -2.19 1.53 -3.91 3.48 -3.91 1.10 0 1.29 -0.19 1.29 -1.48 0 -1 0.57 -2.15 2.05 -3.81 1.62 -1.91 2.29 -2.34 3.58 -2.34 1.43 0 1.53 -0.10 1.53 -1.67 0 -1.48 1.62 -3.39 18.93 -22.17 18.31 -19.83 18.98 -20.50 20.64 -20.50 1.62 0 2.10 0.38 6.77 5.63 2.77 3.05 11.16 12.25 18.69 20.36 12.01 13.02 13.64 14.97 13.64 16.35 0 1.38 0.14 1.53 1.38 1.53 1.91 0 6.25 4.58 6.25 6.63 0 1.24 0.19 1.48 1.10 1.48 1.67 0 3.19 1.91 3.19 3.96 0 1.67 0.10 1.76 1.62 1.76 1.29 0 1.91 0.38 3.24 2.05 3.39 4.10 5.10 9.34 5.15 15.49 l0 2.96 -4.39 2.96 c-11.97 7.87 -28.65 13.92 -43.05 15.59 -6.67 0.76 -12.40 1.05 -12.78 0.72z"/>
  <path d="M214.45 269.28 c-13.73 -16.21 -22.22 -37.52 -23.12 -58.17 l-0.29 -7.06 15.78 0 c15.49 0 15.83 0 15.83 -0.95 0 -0.95 -0.33 -0.95 -15.73 -0.95 l-15.73 0 0 -4.34 c0 -8.72 2.72 -22.17 6.44 -31.66 5.34 -13.83 12.01 -24.17 22.55 -35.09 l5.44 -5.67 2.29 0 2.29 0 14.59 14.83 c16.88 17.12 16.31 16.16 12.44 20.83 l-2.19 2.62 1.57 1.72 c0.86 0.95 4.10 4.29 7.15 7.49 5.15 5.29 5.63 5.91 5.63 7.53 0 1.43 -0.43 2.29 -2.15 4.29 -1.33 1.57 -2.15 3 -2.15 3.77 0 1.29 -1.67 3.19 -13.11 14.97 -5.58 5.72 -6.29 6.34 -7.82 6.34 -1.05 0 -2.05 -0.38 -2.77 -1.05 l-1.14 -1.05 -1.95 2 -2 1.95 1.05 1.43 c1.95 2.62 1.57 3.39 -5.01 10.39 -3.39 3.53 -6.77 6.67 -7.53 7.01 -2.05 0.86 -14.35 10.25 -16.93 12.87 l-2.10 2.19 4.24 4.34 4.29 4.29 3.29 -3.43 c1.76 -1.91 5.10 -6.29 7.29 -9.73 5.10 -7.77 7.39 -10.25 9.54 -10.25 1.24 0 1.76 0.33 2.77 1.76 0.72 1.10 1.19 2.48 1.19 3.48 0 1.53 -0.52 2.24 -5.24 6.91 -5.05 5.01 -5.20 5.24 -4.53 6.29 1.29 1.91 0.91 4.53 -1.14 7.87 -1.05 1.72 -3.19 5.67 -4.77 8.87 -2.86 5.72 -2.96 5.82 -4.53 5.82 -1.33 0 -1.95 -0.38 -3.72 -2.48z"/>
  <path d="M365.01 269.04 c-0.72 -1.53 -2.91 -5.67 -4.86 -9.30 -1.95 -3.58 -3.53 -7.06 -3.53 -7.72 0 -0.72 0.33 -1.81 0.76 -2.48 0.81 -1.19 0.81 -1.19 -4.53 -6.58 -6.01 -6.10 -6.34 -6.96 -3.96 -10.35 1.10 -1.57 1.57 -1.86 3.05 -1.86 1.48 0 2.05 0.33 3.86 2.38 1.19 1.33 2.77 3.39 3.48 4.67 2.53 4.39 5.91 9.11 9.06 12.73 l3.19 3.62 4.24 -4.20 c2.29 -2.29 4.20 -4.29 4.20 -4.43 0 -1.57 -14.73 -13.54 -18.98 -15.40 -0.72 -0.33 -3.91 -3.29 -7.10 -6.58 -5.44 -5.58 -5.86 -6.10 -5.86 -7.82 0 -1.19 0.33 -2.19 0.95 -2.86 l0.95 -1 -2.15 -2.10 -2.15 -2.10 -1.10 1.05 c-0.72 0.67 -1.72 1.05 -2.81 1.05 -1.62 0 -2.24 -0.52 -8.44 -7.01 -3.67 -3.91 -7.29 -7.96 -8.06 -9.01 -0.81 -1.10 -2.10 -2.43 -2.91 -3 -1.14 -0.81 -1.48 -1.43 -1.48 -2.62 0 -1.19 -0.48 -2 -2.15 -3.62 -1.81 -1.76 -2.15 -2.38 -2.15 -3.91 0 -1.72 0.48 -2.29 7.06 -9.01 3.86 -3.96 7.06 -7.44 7.15 -7.72 0.05 -0.33 -0.76 -1.62 -1.81 -2.91 -1.72 -2.05 -1.95 -2.62 -1.81 -4.39 0.14 -2 0.52 -2.43 14.64 -16.64 14.30 -14.30 14.54 -14.54 16.45 -14.54 1.72 0 2.34 0.38 4.96 2.67 6.82 6.10 15.69 17.97 20.69 27.75 6.29 12.40 10.11 26.65 10.73 40 l0.29 6.34 -15.92 0.10 c-13.78 0.14 -15.92 0.24 -15.92 0.86 0 0.62 2.15 0.72 15.92 0.86 l15.92 0.10 -0.29 6.58 c-0.76 17.93 -6.20 34.28 -16.54 49.77 -5.72 8.58 -8.20 11.35 -10.20 11.35 -1.38 0 -1.62 -0.24 -2.86 -2.72z"/>
  <path d="M241.81 228.37 c-0.67 -0.86 -1.05 -2.10 -1.05 -3.19 0 -1.72 0.43 -2.24 6.58 -8.39 5.96 -5.91 6.67 -6.53 8.25 -6.53 2.29 0 4.24 2 4.24 4.34 0 1.53 -0.67 2.38 -6.48 8.44 -6.34 6.63 -6.53 6.77 -8.49 6.77 -1.67 0 -2.19 -0.24 -3.05 -1.43z"/>
  <path d="M333.11 223.22 c-6.20 -6.25 -6.53 -6.72 -6.53 -8.49 0.05 -2.62 1.72 -4.48 4.15 -4.48 1.72 0 2.24 0.43 8.39 6.58 6.25 6.25 6.53 6.63 6.53 8.49 0 2.53 -1.91 4.48 -4.34 4.48 -1.53 0 -2.29 -0.62 -8.20 -6.58z"/>
  <path d="M263.03 207.49 c-0.91 -0.95 -1.29 -1.86 -1.29 -3.05 0 -1.48 0.33 -2.05 2.53 -3.96 1.33 -1.19 3.81 -2.96 5.48 -3.91 1.67 -0.91 4.10 -2.53 5.39 -3.58 1.86 -1.43 2.72 -1.86 3.91 -1.72 1.43 0.14 1.53 0.29 1.67 2.24 l0.14 2.05 -6.53 6.63 c-6.05 6.10 -6.72 6.63 -8.30 6.63 -1.29 0 -2.05 -0.33 -3 -1.33z"/>
  <path d="M311.66 201.91 c-6.34 -6.63 -6.58 -6.96 -6.44 -8.68 0.14 -1.72 0.24 -1.81 1.91 -1.95 1.53 -0.14 2.19 0.14 4.05 1.72 1.29 1 3.48 2.57 4.91 3.43 1.43 0.86 3.96 2.62 5.63 3.91 2.67 2.15 2.96 2.53 2.96 4.10 0 1.43 -0.29 2 -1.62 3.10 -1.05 0.81 -2.24 1.29 -3.24 1.29 -1.38 0 -2.29 -0.76 -8.15 -6.91z"/>
  <path d="M262.51 152.47 c-28.61 -28.89 -28.89 -29.23 -28.89 -31.13 0 -1.91 0.05 -1.95 4.05 -4.48 8.92 -5.58 19.45 -10.06 29.85 -12.63 10.39 -2.53 23.79 -3.62 24.46 -1.91 0.14 0.43 0.29 7.49 0.29 15.73 0 12.97 0.10 14.97 0.72 14.97 0.62 0 0.72 -2.05 0.72 -15.78 l0 -15.83 7.29 0.29 c15.78 0.62 34.61 6.67 48.15 15.54 3.48 2.29 3.67 2.48 3.67 4.20 0 1.72 -0.95 2.77 -29.18 30.99 -26.36 26.41 -29.37 29.23 -30.75 29.23 -1.33 0 -4.24 -2.77 -30.37 -29.18z"/>
  <path d="M168.34 258.02 c-0.67 -1.38 -1 -2.96 -0.91 -3.96 l0.14 -1.62 5.15 -0.14 5.10 -0.14 0 1.86 c0 1.53 -0.33 2.15 -2.29 4.05 -1.95 1.91 -2.53 2.24 -4.20 2.24 -1.86 0 -2 -0.10 -3 -2.29z"/>
  <path d="M413.73 264.03 c-2.15 -0.91 -2.29 -1.10 -2.29 -2.81 0 -2.19 0.72 -4.15 2 -5.53 0.86 -0.91 1.53 -1.10 4.20 -1.10 1.81 0 3.39 0.24 3.72 0.57 0.91 0.91 0.67 5.58 -0.38 7.91 -0.86 1.91 -1 2 -2.96 1.95 -1.14 0 -3.05 -0.48 -4.29 -1z"/>
  <path d="M401.96 258.55 l-2.53 -1.19 0.24 -2.10 c0.10 -1.19 0.76 -2.96 1.48 -4 1.24 -1.86 1.29 -1.91 4.10 -1.91 2.53 0 2.91 0.14 3.62 1.19 0.95 1.43 0.76 4.77 -0.43 7.53 -0.67 1.53 -0.95 1.76 -2.34 1.72 -0.86 0 -2.72 -0.57 -4.15 -1.24z"/>
  <path d="M347.94 95.54 c-2.10 -1.10 -2.29 -1.33 -2.29 -3 0 -1.57 0.29 -2.05 2.34 -3.77 1.91 -1.62 2.72 -2 4.29 -2 l1.95 0 0 3.24 c0 1.76 -0.14 4 -0.29 5.01 -0.29 1.67 -0.43 1.76 -2.05 1.72 -0.95 0 -2.72 -0.57 -3.96 -1.19z"/>
  <path d="M238.86 87.96 l0 -5.01 2.05 0 c1.72 0 2.34 0.33 4.29 2.19 1.91 1.81 2.24 2.43 2.24 3.91 0 1.67 -0.14 1.81 -2.53 2.86 -1.33 0.57 -3.29 1.05 -4.24 1.05 l-1.81 0 0 -5.01z"/>
 </g>
 <g fill="#141314">
  <path d="M290.68 374.40 c-0.19 -3.39 -0.33 -7.44 -0.33 -9.06 l0 -3 -3.29 0 c-4.29 0 -11.68 -0.76 -19.31 -1.95 -21.45 -3.43 -43.05 -11.82 -61.26 -23.79 -3.62 -2.34 -6.67 -4.29 -6.87 -4.29 -0.19 0 -4.91 6.96 -10.58 15.49 -5.63 8.53 -10.44 15.49 -10.68 15.49 -0.29 0 -6.96 -6.39 -14.88 -14.21 l-14.40 -14.21 2.34 -2.15 c1.29 -1.19 7.06 -6.53 12.82 -11.87 5.77 -5.34 10.63 -9.82 10.82 -9.96 0.19 -0.19 -1.05 -1.91 -2.77 -3.86 -12.49 -14.16 -22.65 -31.08 -29.51 -49.30 -5.48 -14.49 -9.77 -35.85 -9.77 -48.73 l0 -3.53 -9.06 0 -9.06 0 0 -2.38 0 -2.38 8.92 -0.10 8.96 -0.14 0.10 -2.62 c1.48 -33.42 13.16 -65.36 33.52 -91.78 3.72 -4.82 13.78 -15.97 16.69 -18.55 l1.57 -1.33 -17.50 -17.50 c-9.58 -9.58 -17.45 -17.69 -17.45 -17.93 0 -0.62 7.72 -8.34 8.34 -8.34 0.29 0 8.44 7.96 18.12 17.64 9.68 9.73 17.83 17.64 18.02 17.64 0.24 0 2.05 -1.24 4.05 -2.81 7.58 -5.77 23.41 -14.92 30.13 -17.50 1.19 -0.43 3.24 -1.29 4.53 -1.86 6.87 -3.15 21.50 -7.44 31.70 -9.25 6.48 -1.14 18.26 -2.43 22.60 -2.43 2.34 0 3.10 -0.19 3.34 -0.76 0.14 -0.43 0.29 -4.48 0.29 -9.06 l0 -8.30 2.15 0 2.15 0 0.10 8.96 0.14 8.92 5.96 0.33 c11.30 0.62 25.41 3 36.14 6.05 16.93 4.86 36.19 14.35 49.15 24.17 l5.10 3.86 15.02 -14.73 c8.20 -8.10 16.45 -16.16 18.21 -17.88 l3.24 -3.19 4 4 c2.24 2.24 4.05 4.24 4.05 4.53 0 0.24 -7.82 8.30 -17.40 17.88 l-17.40 17.40 4.67 4.77 c23.84 24.27 38.86 53.11 44.43 85.34 1 5.91 2.38 18.83 2.38 22.50 l0 2.05 9.06 0 9.06 0 0 2.38 0 2.38 -8.96 0 -8.96 0 -0.57 8.01 c-1.62 22.88 -7.29 42.96 -17.93 63.27 -5.63 10.82 -13.16 21.88 -20.45 29.99 l-3.39 3.77 1.91 1.72 c4.20 3.77 23.79 22.12 23.93 22.41 0.05 0.14 -6.39 6.77 -14.35 14.73 l-14.45 14.45 -10.25 -15.35 c-5.63 -8.44 -10.35 -15.54 -10.54 -15.88 -0.24 -0.33 -0.57 -0.38 -1.05 -0.05 -20.45 14.26 -40.72 22.88 -64.22 27.37 -6.34 1.19 -17.78 2.43 -22.84 2.43 l-3.81 0 0 9.06 0 9.06 -2.05 0 -2.10 0 -0.29 -6.05z m21.60 -18.02 c20.98 -2.81 39.38 -9.01 56.73 -18.98 27.89 -16.02 48.25 -37.38 62.46 -65.41 7.49 -14.78 12.06 -28.89 14.54 -44.77 5.05 -32.42 -0.10 -64.41 -15.11 -93.83 -17.40 -34.14 -46.06 -60.12 -81.91 -74.23 -11.06 -4.34 -27.27 -8.30 -39.57 -9.63 -7.10 -0.81 -25.46 -0.81 -32.18 0 -35.71 4.10 -66.51 18.40 -91.35 42.34 -21.98 21.22 -36.57 46.68 -43.81 76.43 -8.06 33.42 -4.34 68.46 10.73 100.36 9.58 20.36 25.46 40.29 43.62 54.83 5.01 4 16.07 11.49 21.12 14.26 19.69 10.87 40.57 17.31 62.55 19.31 6.67 0.62 25.60 0.24 32.18 -0.67z"/>
  <path d="M282.48 307.70 c-30.99 -3.29 -58.64 -19.59 -76.47 -45.15 -15.16 -21.74 -21.45 -49.96 -16.93 -76.28 4 -23.41 14.30 -42.96 31.23 -59.21 23.17 -22.31 55.45 -32.61 87.68 -28.08 45.63 6.44 81.15 41.34 88.92 87.44 1.10 6.29 1.48 21.45 0.76 28.22 -2.86 26.46 -14.97 49.82 -34.85 67.27 -14.78 12.97 -31.90 21.17 -51.73 24.70 -4.48 0.81 -8.01 1.05 -16.21 1.14 -5.77 0.10 -11.35 0.05 -12.40 -0.05z m22.65 -5.01 c14.49 -1.62 31.23 -7.68 43.29 -15.59 5.01 -3.34 4.96 -3.29 3.72 -9.20 -0.81 -3.72 -2.15 -6.53 -4.48 -9.39 l-1.67 -2.05 -3 0.33 c-5.63 0.57 -10.01 -1.43 -12.16 -5.63 -1.10 -2.19 -1.29 -6.34 -0.38 -9.34 0.67 -2.29 2.62 0.14 -16.73 -20.88 -7.49 -8.10 -15.11 -16.45 -17.02 -18.55 l-3.43 -3.81 -1.62 1.67 c-0.91 0.91 -9.49 10.16 -19.07 20.55 l-17.40 18.93 0.67 2.53 c1.67 6.34 -0.29 11.35 -5.34 13.78 -1.95 0.95 -2.67 1.05 -6.15 0.76 l-4 -0.29 -1.67 2.05 c-2.86 3.53 -5.05 9.58 -5.05 14.06 0 1.72 0.14 1.86 4.34 4.58 5.34 3.43 12.97 7.29 19.02 9.58 11.92 4.58 32.66 8.06 33.56 5.67 0.14 -0.43 0.29 -7.58 0.29 -15.97 l0 -15.21 2.15 0 2.15 0 0 15.88 c0 8.77 0.10 16.02 0.19 16.11 0.29 0.29 4.48 0.05 9.82 -0.57z m-83.86 -38.19 c1.57 -3.19 3.72 -7.15 4.77 -8.87 1 -1.67 1.86 -3.29 1.86 -3.53 0 -0.24 -0.38 -1.05 -0.86 -1.72 -0.48 -0.72 -1.05 -1.57 -1.24 -1.91 -0.24 -0.38 1.67 -2.67 5.48 -6.53 l5.82 -5.96 -1.29 -1.95 -1.33 -1.95 -1.67 1.57 c-0.91 0.91 -3.67 4.67 -6.15 8.34 -2.43 3.77 -6.10 8.53 -8.20 10.73 l-3.77 3.96 -1.38 -1 c-0.76 -0.57 -3.43 -3.10 -5.91 -5.58 l-4.48 -4.58 2.81 -2.91 c3.19 -3.24 15.35 -12.63 17.64 -13.59 0.76 -0.33 4.15 -3.48 7.44 -6.96 l6.05 -6.39 -1.67 -2.05 -1.72 -2 2.81 -2.86 c4 -4.10 4.15 -4.15 6.10 -2 l1.67 1.81 6.34 -6.48 c11.39 -11.63 13.21 -13.68 12.92 -14.73 -0.19 -0.67 0.48 -1.76 2.19 -3.77 1.33 -1.53 2.43 -2.96 2.43 -3.10 0 -0.19 -3.43 -3.91 -7.63 -8.25 -4.20 -4.39 -7.63 -8.15 -7.63 -8.39 0 -0.24 1.19 -1.95 2.72 -3.77 l2.67 -3.29 -3.05 -3.19 c-10.77 -11.25 -26.51 -26.79 -27.18 -26.79 -0.43 0 -3.24 2.57 -6.25 5.67 -10.54 10.92 -17.21 21.26 -22.55 35.09 -3.43 8.77 -6.44 22.88 -6.44 30.23 l0 2.91 15.73 0 15.73 0 0 2.38 0 2.38 -15.83 0 -15.78 0 0.29 5.39 c1.05 19.74 9.82 41.29 23.12 56.97 1.14 1.33 2.19 2.48 2.29 2.48 0.10 0 1.48 -2.62 3.10 -5.82z m155.38 -5.53 c10.01 -14.97 15.54 -31.23 16.54 -48.34 l0.29 -5.15 -15.92 -0.10 -15.92 -0.14 0 -2.15 0 -2.15 15.92 -0.14 15.92 -0.10 -0.29 -4.91 c-1.33 -20.79 -10.20 -42.24 -24.31 -58.78 -4.20 -4.91 -9.68 -10.20 -10.63 -10.20 -0.67 0 -29.46 28.89 -29.65 29.75 -0.10 0.38 1.05 2.05 2.53 3.81 l2.67 3.15 -1 1.33 c-0.57 0.72 -3.86 4.20 -7.29 7.72 -8.63 8.82 -8.06 7.63 -5.10 10.77 1.95 2.05 2.43 2.86 2.24 3.81 -0.14 0.91 0.14 1.38 1.19 2.15 0.76 0.57 2.19 2.10 3.24 3.43 1 1.38 4.72 5.48 8.25 9.15 l6.44 6.67 1.91 -1.86 1.95 -1.86 3.34 3.24 c1.86 1.81 3.39 3.48 3.39 3.81 0 0.29 -0.62 1.14 -1.43 1.91 -0.76 0.76 -1.43 1.57 -1.43 1.86 0 0.76 11.59 12.40 12.97 13.02 2.05 0.86 10.30 6.87 13.73 9.96 3.15 2.81 6.63 6.44 6.67 6.91 0 0.14 -2.43 2.67 -5.44 5.63 -5.44 5.34 -5.48 5.34 -6.63 4.58 -1.95 -1.29 -7.01 -7.34 -10.25 -12.40 -1.72 -2.62 -3.58 -5.53 -4.20 -6.48 -1.24 -1.81 -4.39 -5.01 -4.62 -4.67 -0.10 0.10 -0.76 1 -1.53 2 l-1.33 1.76 5.82 5.86 c3.15 3.24 5.77 6.15 5.77 6.48 0 0.33 -0.52 1.29 -1.14 2.10 l-1.19 1.53 3.43 6.25 c1.91 3.43 4.10 7.63 4.86 9.25 l1.43 2.96 2.29 -2.53 c1.29 -1.43 4.24 -5.44 6.53 -8.92z m-126.63 4.48 c2.67 -1.14 4.48 -5.15 3.81 -8.58 -0.43 -2.38 -1.43 -2.19 -3.91 0.67 l-2.10 2.43 1.29 1.67 c1.05 1.38 1.19 1.81 0.67 2.15 -1 0.62 -2 0.52 -3.24 -0.33 -1.05 -0.76 -1.14 -0.72 -2.38 0.48 -1.05 1.10 -1.14 1.33 -0.52 1.72 1.05 0.67 4.58 0.57 6.39 -0.19z m92.59 0.14 c0.14 -0.29 -0.24 -1.05 -0.91 -1.72 -1.14 -1.14 -1.24 -1.19 -2.29 -0.43 -2.57 1.76 -3.91 0.57 -2.10 -1.86 l1.29 -1.67 -2.67 -2.72 c-3.05 -3.15 -3.62 -3 -3.62 1.05 0 3.10 1.24 5.44 3.62 6.77 2 1.14 6.10 1.53 6.67 0.57z m-92.54 -40.10 c2.62 -2.72 5.63 -5.82 6.67 -6.96 l1.86 -2 -1.53 -1.53 -1.53 -1.57 -6.67 6.67 c-3.67 3.67 -6.67 6.82 -6.67 7.06 0 0.67 2.05 3.19 2.62 3.19 0.24 0 2.62 -2.19 5.24 -4.86z m92.83 3.58 c0.72 -0.72 1.33 -1.48 1.33 -1.76 0 -0.57 -12.92 -13.64 -13.49 -13.64 -0.48 0 -2.67 2.48 -2.72 3.05 0 0.43 12.87 13.64 13.30 13.64 0.14 0 0.86 -0.57 1.57 -1.29z m-70.04 -26.27 c3.58 -3.62 6.53 -6.82 6.53 -7.10 0 -1.10 -0.72 -0.91 -2.86 0.76 -1.29 1 -3.67 2.62 -5.34 3.53 -1.67 0.95 -4.20 2.77 -5.63 4.05 l-2.62 2.38 1.38 1.48 c0.81 0.81 1.53 1.48 1.72 1.48 0.14 0 3.24 -2.96 6.82 -6.58z m48.96 5.10 l1.67 -1.43 -2.15 -1.86 c-1.19 -1.05 -3.62 -2.77 -5.44 -3.91 -1.76 -1.14 -4.43 -3 -5.86 -4.10 -1.81 -1.43 -2.77 -1.95 -3.10 -1.62 -0.33 0.33 1.57 2.67 6.10 7.44 3.67 3.81 6.72 6.96 6.87 6.96 0.14 -0.05 1 -0.67 1.91 -1.48z m29.13 -83.96 c0.38 -0.72 -0.14 -1.24 -3.24 -3.29 -12.87 -8.39 -32.04 -14.78 -46.72 -15.54 l-5.86 -0.29 0 15.78 0 15.83 -2.15 0 -2.15 0 -0.10 -12.97 c-0.05 -7.15 -0.05 -13.78 0 -14.68 0.24 -3.53 -0.05 -3.81 -3.53 -3.81 -6.87 0 -18.83 2.38 -28.03 5.58 -8.68 3 -24.31 11.44 -24.03 12.92 0.10 0.33 13.11 13.68 28.94 29.70 l28.80 29.13 28.80 -28.80 c15.83 -15.83 29.03 -29.13 29.27 -29.56z"/>
 </g>
 <g fill="#069347">
  <path d="M284.91 346.51 c-0.19 -1.91 -0.33 -9.58 -0.43 -17.07 -0.10 -13.25 -0.10 -13.59 0.86 -13.73 0.67 -0.05 3.53 2.15 9.01 6.91 4.39 3.91 8.72 7.63 9.58 8.39 l1.57 1.29 -0.24 -8.58 -0.29 -8.58 3.86 0 c2.15 0 3.91 0.05 3.91 0.14 0.24 1.38 1.33 33.52 1.14 33.80 -0.14 0.19 -0.43 0.38 -0.67 0.38 -0.57 0 -7.25 -5.58 -14.21 -11.82 -3 -2.67 -5.63 -4.86 -5.86 -4.86 -0.24 0 -0.48 3.81 -0.52 8.49 l-0.14 8.44 -3.67 0.14 -3.62 0.14 -0.29 -3.48z"/>
  <path d="M258.55 345.41 c-6.34 -1.95 -10.16 -6.72 -10.16 -12.68 0 -2 3.43 -17.50 4.82 -21.74 0.57 -1.86 0.81 -1.86 4.86 -0.62 l3.10 0.95 -0.91 3.96 c-0.48 2.15 -1.53 6.58 -2.34 9.87 -1.76 7.34 -1.81 9.01 -0.24 10.87 1.67 2 5.24 2.86 7.34 1.76 2.10 -1.05 2.67 -2.53 5.24 -13.11 l2.24 -9.30 3.67 0 c2 0.05 3.77 0.19 3.96 0.33 0.43 0.48 -4.10 20.12 -5.34 23.03 -0.95 2.29 -3.77 5.34 -5.96 6.48 -2.15 1.10 -7.20 1.19 -10.30 0.19z"/>
  <path d="M345.51 337.07 c-3.81 -0.67 -7.91 -3.24 -10.44 -6.63 -2.86 -3.72 -3.91 -7.10 -3.62 -11.68 0.43 -6.20 4.20 -11.73 9.77 -14.40 3.19 -1.48 9.15 -2.05 12.40 -1.19 l1.95 0.52 -1.24 3.48 -1.24 3.48 -2.48 -0.19 c-3.24 -0.29 -5.34 0.48 -8.01 2.81 -5.15 4.53 -3.48 12.63 3.15 15.40 3.86 1.62 7.44 0.72 10.87 -2.77 1.14 -1.19 2.48 -2.19 2.96 -2.19 1.14 0 5.63 2.24 5.63 2.81 0 0.67 -4 5.86 -5.77 7.49 -1.91 1.76 -6.91 3.58 -9.68 3.48 -1.10 -0.05 -2.96 -0.24 -4.24 -0.43z"/>
  <path d="M229.70 334.97 c-5.58 -1.57 -10.54 -5.44 -12.68 -9.87 -3.29 -6.82 -1.81 -14.97 3.67 -20.12 3.91 -3.62 5.67 -4.29 11.73 -4.34 4.67 -0.05 5.53 0.10 7.63 1.14 3.53 1.72 7.06 5.44 8.30 8.77 0.57 1.48 0.91 2.91 0.76 3.15 -0.38 0.62 -3.48 1.43 -5.34 1.43 -1.33 0 -1.72 -0.29 -2.48 -1.86 -1.10 -2.10 -3.39 -4.20 -5.10 -4.62 -2.48 -0.62 -6.34 0.10 -8.39 1.53 -2.86 2.05 -3.86 3.58 -4.10 6.53 -0.38 4.67 1.67 8.06 6.01 9.96 2 0.91 2.10 0.91 2.72 0.05 0.95 -1.19 0.91 -1.24 -0.72 -2.19 -0.76 -0.48 -1.43 -1.10 -1.43 -1.33 0 -0.29 0.67 -1.43 1.43 -2.62 1.05 -1.48 1.81 -2.10 2.57 -2.10 1.38 0 8.87 4.20 8.87 4.96 0 0.29 -1.48 3.10 -3.24 6.25 l-3.24 5.72 -2.34 0.10 c-1.33 0.05 -3.39 -0.19 -4.62 -0.52z"/>
  <path d="M372.07 320.05 c-3.10 -4.05 -5.91 -7.63 -13.64 -17.35 l-3.62 -4.53 2.77 -2.24 c1.53 -1.24 3.05 -2.24 3.39 -2.24 0.38 0 1.19 0.76 1.86 1.62 4.05 5.48 14.02 17.69 14.49 17.83 0.33 0.05 2.38 -1.29 4.62 -3 2.19 -1.67 4.43 -3.10 4.96 -3.05 0.57 0 1.67 0.95 2.77 2.38 l1.86 2.43 -1.95 1.86 c-2.86 2.67 -13.25 10.44 -14.06 10.44 -0.14 0 -1.67 -1.86 -3.43 -4.15z"/>
  <path d="M199.29 315.62 l-3.10 -2.81 1.57 -6.10 c1.95 -7.68 1.95 -8.25 0.14 -8.25 -0.76 0 -1.67 0.33 -2 0.81 -0.38 0.43 -2.15 2.05 -3.96 3.62 l-3.29 2.81 -2.53 -2.53 c-1.43 -1.38 -2.57 -2.77 -2.57 -3.10 0 -0.72 23.70 -23.70 24.22 -23.46 1.05 0.38 11.06 11.30 11.97 13.02 2.19 4.10 0.95 9.34 -3.05 13.06 -2.10 1.95 -2.15 1.95 -5.91 1.95 -2.67 0 -3.91 0.19 -4.29 0.67 -0.33 0.38 -1.24 3.34 -2 6.58 -0.81 3.24 -1.62 6.01 -1.76 6.20 -0.19 0.14 -1.72 -0.95 -3.43 -2.48z m13.02 -20.55 c1.14 -1.57 0.81 -2.77 -1.43 -5.24 -2.19 -2.43 -3.43 -2.38 -6.01 0.05 l-2 1.91 2.48 2.43 c2.24 2.10 2.72 2.38 4.24 2.24 1.24 -0.10 2.05 -0.52 2.72 -1.38z"/>
  <path d="M392.52 300.65 c-2.57 -0.81 -3.81 -1.72 -11.97 -8.58 -3.77 -3.19 -7.29 -6.10 -7.87 -6.53 -0.95 -0.76 -0.95 -0.81 1.38 -3.48 1.29 -1.48 2.62 -2.67 3 -2.67 0.33 0 3.67 2.53 7.39 5.63 8.10 6.77 9.15 7.53 11.11 7.91 3.15 0.72 6.34 -2.24 6.34 -5.77 0 -3.39 -0.10 -3.48 -14.21 -14.64 l-3.43 -2.72 2.15 -2.86 c1.24 -1.53 2.43 -2.81 2.72 -2.81 0.62 0 14.30 10.63 16.73 13.02 6.91 6.82 4.91 18.26 -4 22.74 -3.10 1.57 -5.91 1.81 -9.34 0.76z"/>
  <path d="M173.11 286.68 c-1.10 -1.48 -1.95 -2.81 -1.95 -3 0 -0.72 1.29 -1.62 17.78 -12.73 5.20 -3.48 9.54 -6.34 9.63 -6.34 0.10 0 1.14 1.43 2.38 3.15 l2.29 3.15 -1.38 1.14 c-1.48 1.19 -11.44 8.01 -13.49 9.25 -0.72 0.38 -3.72 2.38 -6.77 4.43 -3.05 2 -5.77 3.67 -6.05 3.67 -0.29 0 -1.38 -1.19 -2.43 -2.72z"/>
  <path d="M164.05 272.61 l-2 -3.43 2.05 -2.05 2 -2.05 -2.57 -5.39 c-1.43 -2.91 -2.77 -5.58 -3 -5.91 -0.24 -0.33 -1.62 -0.62 -3.05 -0.72 l-2.67 -0.14 -1.10 -2.86 c-1.76 -4.53 -2.34 -4.24 7.77 -3.91 17.88 0.57 28.46 1.38 29.32 2.19 0.72 0.72 0.24 1.33 -6.15 8.15 -3.81 4.05 -9.39 10.11 -12.44 13.49 -3.05 3.34 -5.67 6.05 -5.86 6.05 -0.14 0 -1.19 -1.53 -2.29 -3.43z m10.06 -15.97 c1.24 -1.24 2.29 -2.43 2.29 -2.62 0 -0.52 -7.06 -0.48 -7.39 0.05 -0.33 0.57 1.72 4.82 2.34 4.82 0.29 0 1.53 -1 2.77 -2.24z"/>
  <path d="M417.17 271.80 c-2.24 -1 -8.87 -4 -14.68 -6.67 -5.86 -2.62 -10.87 -4.82 -11.11 -4.82 -0.81 0 -0.43 -1.05 2.72 -7.20 4.43 -8.68 6.48 -10.44 12.25 -10.44 3.58 0 5.58 1.33 6.82 4.58 0.72 1.86 0.95 2.10 1.81 1.86 5.39 -1.72 7.77 -1.43 10.35 1.14 2.72 2.72 3.53 6.96 2.10 11.06 -0.76 2.10 -5.29 11.35 -5.86 11.97 -0.19 0.19 -2.15 -0.48 -4.39 -1.48z m2.38 -10.16 c1.05 -2.34 1.19 -4.24 0.38 -5.05 -1 -1 -3.91 -0.67 -5.05 0.52 -1 1.05 -2.29 4 -1.91 4.39 0.38 0.38 4.43 2.10 5.05 2.10 0.33 0.05 1.05 -0.86 1.53 -1.95z m-12.16 -6.10 c0.76 -2.24 0.76 -2.53 0.05 -3.58 -1.62 -2.48 -4.48 -1.14 -5.96 2.77 -0.48 1.19 -0.33 1.29 2 2.38 1.38 0.62 2.62 1.05 2.81 0.95 0.14 -0.10 0.67 -1.24 1.10 -2.53z"/>
  <path d="M377.45 130.30 l-3.19 -3.15 1.19 -5.34 c0.67 -2.96 1.19 -5.48 1.19 -5.67 0 -0.52 -1.67 -0.29 -5.48 0.91 -2.10 0.67 -4.29 1.19 -4.82 1.19 -1.14 0 -7.29 -5.44 -6.77 -5.96 0.19 -0.19 1.24 -0.52 2.38 -0.76 1.14 -0.24 5.29 -1.24 9.20 -2.29 l7.15 -1.86 1 -4.48 c0.57 -2.43 1.53 -6.53 2.10 -9.06 0.57 -2.57 1.24 -4.67 1.53 -4.67 0.24 0 1.81 1.19 3.48 2.62 l2.96 2.62 -1.29 5.34 c-1.57 6.44 -1.86 6.25 5.29 4.43 l4.91 -1.24 2.91 3.19 c1.57 1.76 2.81 3.34 2.77 3.48 -0.14 0.38 -7.29 2.29 -12.78 3.39 -2.67 0.57 -5.10 1.38 -5.58 1.81 -0.52 0.52 -1.43 3.81 -2.53 8.92 -0.91 4.48 -1.86 8.49 -2.05 8.92 -0.29 0.67 -0.91 0.29 -3.58 -2.34z"/>
  <path d="M203.53 123.62 c-2.72 -3.05 -7.68 -8.63 -11.01 -12.40 -3.39 -3.72 -6.10 -7.01 -6.10 -7.29 0 -0.24 0.81 -0.95 1.81 -1.62 0.95 -0.62 2.05 -1.48 2.43 -1.91 1.19 -1.43 2.34 -0.81 5.86 3.29 1.91 2.24 3.81 4.05 4.20 4.05 0.81 0 9.06 -7.44 9.06 -8.20 0 -0.24 -1.72 -2.43 -3.81 -4.82 -2.10 -2.38 -3.81 -4.48 -3.81 -4.67 0 -0.57 5.39 -4.77 6.01 -4.62 0.33 0.10 2.48 2.29 4.82 4.96 2.29 2.67 7.20 8.20 10.82 12.30 5.44 6.15 6.58 7.68 6.15 8.30 -0.48 0.86 -4.91 4.39 -5.48 4.39 -0.14 0 -2.05 -2.05 -4.24 -4.53 -2.77 -3.19 -4.20 -4.53 -4.96 -4.53 -0.72 0 -2.57 1.43 -5.20 3.96 l-4.10 3.91 4.34 4.91 4.34 4.96 -2.53 2.57 c-1.38 1.43 -2.81 2.57 -3.10 2.57 -0.33 0 -2.77 -2.53 -5.48 -5.58z"/>
  <path d="M354.28 109.99 l-3 -1.95 0.29 -2.48 0.29 -2.53 -4.62 -2.38 c-2.57 -1.33 -5.15 -2.43 -5.77 -2.43 -0.57 0 -1.91 0.57 -2.91 1.24 l-1.86 1.19 -3.43 -1.72 c-3.39 -1.72 -3.43 -1.72 -2.53 -2.72 1.29 -1.48 7.96 -6.96 12.54 -10.35 2.24 -1.67 5.01 -3.81 6.20 -4.82 4.43 -3.67 9.25 -7.15 9.96 -7.15 2.05 0.05 2.10 0.29 1.29 10.77 -0.43 5.48 -0.95 12.78 -1.24 16.16 -0.72 9.39 -0.95 11.20 -1.57 11.16 -0.33 0 -1.95 -0.91 -3.62 -2z m-1.76 -16.40 c0.43 -2.81 0.33 -5.39 -0.24 -5.39 -0.62 0 -5.20 3.81 -5.20 4.34 0 0.33 4.05 2.67 4.82 2.77 0.19 0.05 0.43 -0.76 0.62 -1.72z"/>
  <path d="M233.14 105.27 c0 -1.67 -0.14 -10.16 -0.29 -18.83 -0.29 -15.30 -0.29 -15.88 0.57 -15.88 0.52 0 1.33 -0.14 1.86 -0.29 0.76 -0.19 2.48 1.05 7.15 5.10 11.54 9.96 21.22 18.69 21.22 19.07 0 0.67 -4.91 3.29 -6.25 3.29 -0.72 0 -1.76 -0.57 -2.57 -1.43 -1.81 -1.91 -3.24 -1.86 -7.77 0.43 -2 1 -4.24 1.95 -4.96 2.15 -1.29 0.29 -1.33 0.43 -1.33 3.15 0 2.53 -0.14 2.91 -1.29 3.72 -1.24 0.81 -5.20 2.48 -6.01 2.48 -0.19 0 -0.33 -1.33 -0.33 -2.96z m10.35 -14.78 c1.38 -0.62 2.53 -1.24 2.53 -1.43 0 -0.57 -4.48 -4.67 -5.10 -4.67 -0.43 0 -0.62 1.05 -0.62 3.58 0 1.95 0.14 3.58 0.38 3.58 0.19 0 1.48 -0.48 2.81 -1.05z"/>
  <path d="M267.23 93.83 c-0.10 -0.33 -0.62 -4.05 -1.19 -8.25 -0.52 -4.20 -1.53 -10.92 -2.15 -14.92 -1.72 -10.58 -1.91 -9.82 2.43 -10.54 2 -0.33 3.72 -0.48 3.86 -0.38 0.10 0.14 0.95 5.39 1.86 11.63 0.86 6.25 1.72 12.06 1.86 12.97 l0.29 1.62 4.15 -0.29 c2.29 -0.19 5.15 -0.43 6.34 -0.62 l2.24 -0.29 0.19 3.24 c0.14 1.81 0.10 3.48 -0.14 3.72 -0.19 0.24 -2.24 0.57 -4.58 0.81 -2.29 0.24 -6.10 0.72 -8.49 1.14 -5.24 0.86 -6.39 0.91 -6.67 0.14z"/>
  <path d="M311.61 93.16 c-1.81 -0.38 -3.39 -0.76 -3.48 -0.86 -0.14 -0.14 5.34 -25.17 6.87 -31.13 0.19 -0.91 0.57 -1.10 2.10 -1.10 1.67 0 19.40 3.58 19.83 4 0.19 0.14 -1.29 6.53 -1.57 6.87 -0.05 0.10 -2.15 -0.29 -4.67 -0.81 -5.39 -1.19 -8.53 -1.29 -9.34 -0.29 -0.29 0.38 -0.67 1.53 -0.81 2.57 -0.29 2.15 -0.67 1.95 7.25 3.67 2.10 0.43 3.86 0.86 3.96 0.91 0.38 0.33 -1.48 6.91 -1.95 6.91 -0.33 0 -1.86 -0.33 -3.43 -0.72 -3.67 -0.86 -7.10 -0.91 -7.82 -0.05 -0.29 0.33 -1 2.86 -1.62 5.53 -0.57 2.72 -1.29 4.96 -1.53 5.01 -0.29 0.10 -1.95 -0.19 -3.77 -0.52z"/>
  <path d="M292.49 75.47 c0.29 -13.49 0.48 -16.26 1.10 -16.93 0.57 -0.67 1.48 -0.86 3.96 -0.86 l3.19 0 -0.24 16.35 c-0.10 8.96 -0.29 16.59 -0.38 16.93 -0.14 0.38 -1.38 0.57 -4.10 0.57 l-3.86 0 0.33 -16.07z"/>
 </g>
 <g fill="#242424">
  <path d="M152.23 215.40 c0.19 -0.33 1.19 -2.81 2.34 -5.48 1.72 -4.20 2.15 -4.91 3.10 -4.91 1.05 0 1.10 0.19 1.10 3.10 0 2.77 0.10 3.10 0.95 3.10 0.67 0 0.95 0.33 0.95 1 0 1.29 1.14 0.91 1.33 -0.43 0.14 -0.86 0.48 -1.05 1.81 -1.05 1.43 0 1.62 0.14 1.62 1.19 0 0.76 0.29 1.19 0.72 1.19 0.38 0 0.72 -0.29 0.72 -0.67 0 -0.38 0.62 -0.76 1.43 -0.86 0.95 -0.14 1.43 0 1.43 0.38 0 0.67 0.91 1.38 1.29 1 0.43 -0.48 -0.91 -3.72 -1.43 -3.53 -0.62 0.19 -1.76 -3 -1.76 -5.01 l0 -1.33 -4.29 0 c-2.53 0 -4.29 0.19 -4.29 0.48 0 0.29 -0.52 0.48 -1.19 0.48 -1.05 0 -1.19 -0.14 -0.91 -1.14 0.19 -0.91 -0.19 -1.57 -2.10 -3.48 -1.81 -1.81 -2.53 -2.91 -2.81 -4.48 -0.81 -4 -1.48 -3.77 11.35 -3.77 l11.39 0 0.29 1.24 c0.48 1.95 -0.62 4.67 -2.72 6.82 -1.10 1.10 -2.19 1.95 -2.43 1.95 -0.57 0 -0.29 0.86 2.53 8.15 1.29 3.29 2.34 6.10 2.34 6.29 0 0.19 -5.15 0.33 -11.49 0.33 -9.01 0 -11.44 -0.14 -11.25 -0.57z m5.72 -4.15 c0.19 -0.86 0.29 -1.72 0.10 -1.86 -0.43 -0.48 -1.14 0.57 -1.48 2.24 -0.43 2.15 0.81 1.81 1.38 -0.38z"/>
  <path d="M411.92 215.74 c0 -0.10 0.95 -2.53 2.10 -5.34 3.67 -9.01 3.62 -8.20 0.57 -11.25 -2.67 -2.67 -3.58 -4.86 -2.91 -6.96 0.29 -1 0.48 -1 11.82 -0.91 l11.54 0.14 0.14 1.76 c0.19 2.29 -1.33 5.20 -3.58 6.91 -1 0.72 -1.86 1.33 -1.91 1.33 -0.29 0.10 1.38 4.77 3.15 8.82 1.05 2.48 1.95 4.82 1.95 5.15 0 0.43 -2.62 0.57 -11.44 0.57 -6.29 0 -11.44 -0.10 -11.44 -0.24z m9.92 -4.20 c0.14 -1.10 0.38 -1.29 1.81 -1.29 1.48 0 1.62 0.10 1.62 1.43 0 0.95 0.24 1.43 0.72 1.43 0.38 0 0.72 -0.33 0.72 -0.72 0 -0.48 0.48 -0.72 1.38 -0.72 l1.38 0 -0.91 -2.38 c-0.48 -1.33 -0.91 -3.24 -0.91 -4.29 l0 -1.91 -4.29 0 -4.29 0 0 2.10 c0 1.19 -0.19 2.67 -0.48 3.34 -0.43 1.14 -0.33 1.24 0.72 1.24 1.05 0 1.19 0.19 1.19 1.72 0 2 1.10 2.05 1.33 0.05z"/>
 </g>
 <g fill="#99a0a4">
  <path d="M151.99 191.94 c0.52 -1.91 4.05 -4.82 6.96 -5.72 5.77 -1.81 12.92 0.14 15.30 4.20 0.67 1.14 1.19 2.15 1.19 2.24 0 0.10 -5.34 0.19 -11.82 0.19 -11.49 0 -11.87 -0.05 -11.63 -0.91z"/>
  <path d="M412.16 191.23 c2.72 -5.29 11.54 -7.34 18.07 -4.15 2.24 1.10 5.05 4 5.05 5.20 0 0.19 -5.39 0.33 -11.92 0.33 l-11.97 0 0.76 -1.38z"/>
  <path d="M232.80 92.73 c0 -1.29 0.10 -1.81 0.19 -1.05 0.10 0.72 0.10 1.76 0 2.38 -0.10 0.57 -0.19 0 -0.19 -1.33z"/>
 </g>
 <g fill="#454647">
  <path d="M161.43 213.07 c0.72 -0.86 1.38 -7.10 0.76 -7.10 -0.24 0 -0.76 1.57 -1.10 3.48 -0.62 3.15 -0.76 3.43 -1.86 3.43 -1.10 0 -1.19 -0.19 -1.10 -1.76 0.10 -1.29 -0.10 -1.81 -0.52 -1.81 -0.38 0 -0.81 0.76 -1.05 1.81 -0.19 1.10 -0.43 1.43 -0.52 0.91 -0.14 -0.48 0.10 -1.72 0.52 -2.77 0.95 -2.38 0.95 -2.86 0 -2.48 -0.86 0.33 -0.72 -0.48 0.67 -3.67 l0.72 -1.67 5.44 0.14 c3.96 0.10 5.67 0 6.25 -0.48 0.43 -0.38 0.62 -0.38 0.43 -0.05 -0.19 0.29 -0.14 1.05 0.10 1.62 0.24 0.76 0.19 1.29 -0.24 1.62 -0.48 0.38 -0.33 1.14 0.57 3.81 1.62 4.67 1.48 5.20 -1.48 5.34 -2.24 0.14 -2.43 0.10 -2.43 -0.91 -0.05 -4 -0.24 -5.15 -0.91 -5.15 -0.52 0 -0.67 0.57 -0.57 2.48 0.10 2.19 0 2.53 -0.86 2.53 -0.52 0 -1.48 0.33 -2.15 0.67 -1 0.57 -1.10 0.57 -0.67 0z m9.58 -1 c-0.29 -1.57 -0.86 -2.77 -1.33 -2.77 -0.57 0 -0.52 1.05 0.05 2.57 0.57 1.53 1.53 1.62 1.29 0.19z"/>
  <path d="M415.55 213.16 c-0.14 -0.24 0.29 -1.95 0.91 -3.91 1.24 -3.58 1.43 -4.82 0.86 -4.62 -0.57 0.19 -0.72 -0.48 -0.43 -1.91 l0.33 -1.29 6.15 0 6.20 0 0.43 1.29 c0.38 1.05 0.29 1.43 -0.29 1.72 -0.67 0.38 -0.57 0.91 0.57 4.34 0.72 2.15 1.19 4.05 1 4.24 -0.19 0.19 -1.29 0.33 -2.48 0.33 l-2.05 0 -0.29 -2.15 c-0.48 -3.48 -0.72 -4.29 -1.24 -4.29 -0.72 0 -0.10 5.82 0.67 6.29 0.38 0.24 0.33 0.38 -0.19 0.38 -0.43 0 -1.10 -0.48 -1.48 -1.05 l-0.67 -1.05 -1.10 1.10 c-0.95 0.95 -1.05 0.95 -0.86 0.19 0.57 -1.95 0.86 -8.25 0.43 -8.25 -0.57 0 -0.91 1.24 -1.29 5.39 -0.33 3.19 -0.86 4 -1.43 2.24 -0.29 -0.81 -0.38 -0.86 -1 -0.29 -0.38 0.38 -0.67 0.91 -0.67 1.19 0 0.62 -1.76 0.72 -2.10 0.10z"/>
 </g>
</svg>