<?xml version="1.0" encoding="UTF-8"?>
<!DOCTYPE svg PUBLIC "-//W3C//DTD SVG 1.1//EN" "http://www.w3.org/Graphics/SVG/1.1/DTD/svg11.dtd">
<svg xmlns="http://www.w3.org/2000/svg" version="1.1" width="286px" height="246px" style="shape-rendering:geometricPrecision; text-rendering:geometricPrecision; image-rendering:optimizeQuality; fill-rule:evenodd; clip-rule:evenodd" xmlns:xlink="http://www.w3.org/1999/xlink">
<g><path style="opacity:1" fill="#0b0b0b" d="M -0.5,-0.5 C 94.8333,-0.5 190.167,-0.5 285.5,-0.5C 285.5,79.5 285.5,159.5 285.5,239.5C 190.167,239.5 94.8333,239.5 -0.5,239.5C -0.5,159.5 -0.5,79.5 -0.5,-0.5 Z"/></g>
<g><path style="opacity:1" fill="#aca180" d="M 173.5,17.5 C 172.5,17.5 171.5,17.5 170.5,17.5C 162.447,17.2252 154.447,17.7252 146.5,19C 139.084,21.1836 131.751,23.3503 124.5,25.5C 124.5,24.8333 124.5,24.1667 124.5,23.5C 140.419,17.0398 156.752,15.0398 173.5,17.5 Z"/></g>
<g><path style="opacity:1" fill="#bda060" d="M 159.5,19.5 C 164.032,19.1818 168.366,19.5151 172.5,20.5C 170.641,21.5942 168.641,22.4275 166.5,23C 171.193,23.8164 171.526,25.3164 167.5,27.5C 167.995,30.3402 167.995,33.0069 167.5,35.5C 166.521,38.6248 166.187,41.9581 166.5,45.5C 164.5,45.5 162.5,45.5 160.5,45.5C 160.918,44.7784 161.584,44.2784 162.5,44C 161.167,43.3333 159.833,42.6667 158.5,42C 160.059,39.3583 159.725,37.025 157.5,35C 158.5,34.6667 159.5,34.3333 160.5,34C 159.751,32.2663 159.251,30.433 159,28.5C 158.346,29.6956 157.846,29.6956 157.5,28.5C 159.892,26.4402 159.892,24.2735 157.5,22C 158.756,21.5831 159.423,20.7498 159.5,19.5 Z"/></g>
<g><path style="opacity:1" fill="#f2df9e" d="M 170.5,17.5 C 174.906,18.6508 179.239,19.9841 183.5,21.5C 179.865,20.8857 176.198,20.5524 172.5,20.5C 168.366,19.5151 164.032,19.1818 159.5,19.5C 153.638,19.1519 147.972,19.9852 142.5,22C 142.833,22.3333 143.167,22.6667 143.5,23C 142.692,23.3076 142.025,23.8076 141.5,24.5C 143.078,25.2978 144.744,25.7978 146.5,26C 142.968,27.4421 142.968,29.2754 146.5,31.5C 142.898,33.322 142.898,34.322 146.5,34.5C 147.586,37.1947 147.253,39.8613 145.5,42.5C 146.902,43.8425 146.569,44.6758 144.5,45C 146.727,45.704 147.06,46.8706 145.5,48.5C 133.971,51.4317 123.638,56.7651 114.5,64.5C 113.583,63.8728 112.583,63.5394 111.5,63.5C 107.862,59.5259 104.195,55.5259 100.5,51.5C 100.822,49.2776 100.155,47.4443 98.5,46C 99.6354,42.7927 101.635,41.4594 104.5,42C 103.549,41.2825 103.383,40.4491 104,39.5C 105.707,37.9625 107.207,36.2959 108.5,34.5C 113.522,30.9879 118.855,27.9879 124.5,25.5C 131.751,23.3503 139.084,21.1836 146.5,19C 154.447,17.7252 162.447,17.2252 170.5,17.5 Z"/></g>
<g><path style="opacity:1" fill="#d8bf7a" d="M 159.5,19.5 C 159.423,20.7498 158.756,21.5831 157.5,22C 159.892,24.2735 159.892,26.4402 157.5,28.5C 157.846,29.6956 158.346,29.6956 159,28.5C 159.251,30.433 159.751,32.2663 160.5,34C 159.5,34.3333 158.5,34.6667 157.5,35C 159.725,37.025 160.059,39.3583 158.5,42C 159.833,42.6667 161.167,43.3333 162.5,44C 161.584,44.2784 160.918,44.7784 160.5,45.5C 156.384,45.5407 152.384,46.2073 148.5,47.5C 147.609,48.1098 146.609,48.4431 145.5,48.5C 147.06,46.8706 146.727,45.704 144.5,45C 146.569,44.6758 146.902,43.8425 145.5,42.5C 147.253,39.8613 147.586,37.1947 146.5,34.5C 142.898,34.322 142.898,33.322 146.5,31.5C 142.968,29.2754 142.968,27.4421 146.5,26C 144.744,25.7978 143.078,25.2978 141.5,24.5C 142.025,23.8076 142.692,23.3076 143.5,23C 143.167,22.6667 142.833,22.3333 142.5,22C 147.972,19.9852 153.638,19.1519 159.5,19.5 Z"/></g>
<g><path style="opacity:1" fill="#ad8e4d" d="M 172.5,20.5 C 176.198,20.5524 179.865,20.8857 183.5,21.5C 190.265,23.4223 196.932,25.7557 203.5,28.5C 203.089,30.772 201.922,31.1053 200,29.5C 197.057,30.2403 196.891,31.2403 199.5,32.5C 198.609,33.5896 197.609,33.5896 196.5,32.5C 195.396,33.6313 195.729,34.4646 197.5,35C 194.311,35.9808 193.978,37.3141 196.5,39C 195.167,39.3333 193.833,39.6667 192.5,40C 193.101,43.8367 194.268,46.67 196,48.5C 193.384,47.3468 190.718,46.3468 188,45.5C 187.536,46.0944 187.369,46.7611 187.5,47.5C 184.545,46.8413 181.545,46.5079 178.5,46.5C 175.375,45.5206 172.042,45.1872 168.5,45.5C 168.813,41.9581 168.479,38.6248 167.5,35.5C 167.995,33.0069 167.995,30.3402 167.5,27.5C 171.526,25.3164 171.193,23.8164 166.5,23C 168.641,22.4275 170.641,21.5942 172.5,20.5 Z"/></g>
<g><path style="opacity:1" fill="#d7c187" d="M 170.5,17.5 C 171.5,17.5 172.5,17.5 173.5,17.5C 184.464,18.7147 194.798,21.7147 204.5,26.5C 216.05,32.545 226.55,40.2117 236,49.5C 236.483,50.448 236.649,51.448 236.5,52.5C 232.86,56.8062 228.86,60.8062 224.5,64.5C 224.682,59.9833 227.015,57.3166 231.5,56.5C 231.5,55.1667 231.5,53.8333 231.5,52.5C 232.5,52.5 233.5,52.5 234.5,52.5C 234.5,51.5 234.5,50.5 234.5,49.5C 232.409,49.6816 230.409,49.3482 228.5,48.5C 227.808,49.0253 227.308,49.6919 227,50.5C 224.769,48.863 223.603,46.363 223.5,43C 225.709,42.043 225.543,40.8764 223,39.5C 221.796,40.4706 221.296,41.4706 221.5,42.5C 220.757,41.0921 219.923,39.7588 219,38.5C 218.283,39.0442 217.783,39.7109 217.5,40.5C 214.133,39.9987 213.8,38.832 216.5,37C 215.623,34.6225 213.956,33.1225 211.5,32.5C 208.833,31.1667 206.167,29.8333 203.5,28.5C 196.932,25.7557 190.265,23.4223 183.5,21.5C 179.239,19.9841 174.906,18.6508 170.5,17.5 Z"/></g>
<g><path style="opacity:1" fill="#7a6740" d="M 124.5,23.5 C 124.5,24.1667 124.5,24.8333 124.5,25.5C 118.855,27.9879 113.522,30.9879 108.5,34.5C 102.506,37.3142 97.1726,41.1476 92.5,46C 89.1853,47.0383 86.1853,48.5383 83.5,50.5C 94.9644,38.2604 108.631,29.2604 124.5,23.5 Z"/></g>
<g><path style="opacity:1" fill="#e3ca81" d="M 224.5,64.5 C 223.448,64.6495 222.448,64.4828 221.5,64C 216.81,60.3228 211.81,57.1562 206.5,54.5C 207.097,53.8614 207.93,53.528 209,53.5C 210.585,54.2445 212.085,54.7445 213.5,55C 217.435,52.5376 217.102,50.5376 212.5,49C 213.5,48.6667 214.5,48.3333 215.5,48C 214.396,46.8687 214.729,46.0354 216.5,45.5C 218.294,47.67 220.294,47.67 222.5,45.5C 220.847,43.8786 218.847,42.7119 216.5,42C 217.056,41.6174 217.389,41.1174 217.5,40.5C 217.783,39.7109 218.283,39.0442 219,38.5C 219.923,39.7588 220.757,41.0921 221.5,42.5C 221.296,41.4706 221.796,40.4706 223,39.5C 225.543,40.8764 225.709,42.043 223.5,43C 223.603,46.363 224.769,48.863 227,50.5C 227.308,49.6919 227.808,49.0253 228.5,48.5C 230.409,49.3482 232.409,49.6816 234.5,49.5C 234.5,50.5 234.5,51.5 234.5,52.5C 233.5,52.5 232.5,52.5 231.5,52.5C 231.5,53.8333 231.5,55.1667 231.5,56.5C 227.015,57.3166 224.682,59.9833 224.5,64.5 Z"/></g>
<g><path style="opacity:1" fill="#d9bb72" d="M 211.5,32.5 C 213.956,33.1225 215.623,34.6225 216.5,37C 213.8,38.832 214.133,39.9987 217.5,40.5C 217.389,41.1174 217.056,41.6174 216.5,42C 218.847,42.7119 220.847,43.8786 222.5,45.5C 220.294,47.67 218.294,47.67 216.5,45.5C 214.729,46.0354 214.396,46.8687 215.5,48C 214.5,48.3333 213.5,48.6667 212.5,49C 217.102,50.5376 217.435,52.5376 213.5,55C 212.085,54.7445 210.585,54.2445 209,53.5C 207.93,53.528 207.097,53.8614 206.5,54.5C 203.382,53.4413 200.382,52.1079 197.5,50.5C 197.825,48.8684 198.825,47.8684 200.5,47.5C 205.106,49.0585 206.439,47.5585 204.5,43C 205.672,42.5814 206.672,41.9147 207.5,41C 205.375,39.2627 204.542,37.096 205,34.5C 205.414,34.9574 205.914,35.2907 206.5,35.5C 206.296,34.4706 206.796,33.4706 208,32.5C 209.292,33.7911 210.458,33.7911 211.5,32.5 Z"/></g>
<g><path style="opacity:1" fill="#c7a962" d="M 203.5,28.5 C 206.167,29.8333 208.833,31.1667 211.5,32.5C 210.458,33.7911 209.292,33.7911 208,32.5C 206.796,33.4706 206.296,34.4706 206.5,35.5C 205.914,35.2907 205.414,34.9574 205,34.5C 204.542,37.096 205.375,39.2627 207.5,41C 206.672,41.9147 205.672,42.5814 204.5,43C 206.439,47.5585 205.106,49.0585 200.5,47.5C 198.825,47.8684 197.825,48.8684 197.5,50.5C 194.167,49.5 190.833,48.5 187.5,47.5C 187.369,46.7611 187.536,46.0944 188,45.5C 190.718,46.3468 193.384,47.3468 196,48.5C 194.268,46.67 193.101,43.8367 192.5,40C 193.833,39.6667 195.167,39.3333 196.5,39C 193.978,37.3141 194.311,35.9808 197.5,35C 195.729,34.4646 195.396,33.6313 196.5,32.5C 197.609,33.5896 198.609,33.5896 199.5,32.5C 196.891,31.2403 197.057,30.2403 200,29.5C 201.922,31.1053 203.089,30.772 203.5,28.5 Z"/></g>
<g><path style="opacity:1" fill="#82724a" d="M 204.5,26.5 C 212.101,29.6339 219.434,33.3006 226.5,37.5C 230.438,40.9352 234.271,44.6019 238,48.5C 238.773,50.3524 238.273,51.6857 236.5,52.5C 236.649,51.448 236.483,50.448 236,49.5C 226.55,40.2117 216.05,32.545 204.5,26.5 Z"/></g>
<g><path style="opacity:1" fill="#715a32" d="M 167.5,35.5 C 168.479,38.6248 168.813,41.9581 168.5,45.5C 172.042,45.1872 175.375,45.5206 178.5,46.5C 180.975,47.1314 183.309,48.1314 185.5,49.5C 173.08,47.8863 160.747,48.2196 148.5,50.5C 148.5,49.5 148.5,48.5 148.5,47.5C 152.384,46.2073 156.384,45.5407 160.5,45.5C 162.5,45.5 164.5,45.5 166.5,45.5C 166.187,41.9581 166.521,38.6248 167.5,35.5 Z"/></g>
<g><path style="opacity:1" fill="#ddc787" d="M 108.5,34.5 C 107.207,36.2959 105.707,37.9625 104,39.5C 103.383,40.4491 103.549,41.2825 104.5,42C 101.635,41.4594 99.6354,42.7927 98.5,46C 100.155,47.4443 100.822,49.2776 100.5,51.5C 98.7655,49.7649 96.7655,48.4316 94.5,47.5C 91.7536,48.0963 90.9202,49.7629 92,52.5C 98.0748,58.0704 103.575,64.0704 108.5,70.5C 106.833,71.5 105.5,72.8333 104.5,74.5C 102.897,74.6882 101.563,74.1882 100.5,73C 101.685,71.647 103.019,70.4803 104.5,69.5C 99.7523,67.3031 96.0856,63.9697 93.5,59.5C 91.8035,60.3636 90.6368,61.6969 90,63.5C 88.5104,61.442 86.5104,60.1087 84,59.5C 83.6827,61.3008 83.016,61.6341 82,60.5C 77.9442,61.7221 75.4442,64.3888 74.5,68.5C 73.017,70.0938 71.517,71.7605 70,73.5C 69.6667,73.1667 69.3333,72.8333 69,72.5C 67.5831,75.6126 66.0831,78.6126 64.5,81.5C 64.5,80.1667 64.5,78.8333 64.5,77.5C 69.1136,67.2666 75.4469,58.2666 83.5,50.5C 86.1853,48.5383 89.1853,47.0383 92.5,46C 97.1726,41.1476 102.506,37.3142 108.5,34.5 Z"/></g>
<g><path style="opacity:1" fill="#806d40" d="M 178.5,46.5 C 181.545,46.5079 184.545,46.8413 187.5,47.5C 190.833,48.5 194.167,49.5 197.5,50.5C 200.382,52.1079 203.382,53.4413 206.5,54.5C 211.81,57.1562 216.81,60.3228 221.5,64C 222.448,64.4828 223.448,64.6495 224.5,64.5C 224.25,65.9221 223.417,66.9221 222,67.5C 211.137,58.7207 198.97,52.7207 185.5,49.5C 183.309,48.1314 180.975,47.1314 178.5,46.5 Z"/></g>
<g><path style="opacity:1" fill="#ebda9a" d="M 246.5,56.5 C 253.983,65.1368 259.65,74.8035 263.5,85.5C 259.792,81.8 256.292,77.8 253,73.5C 250.442,75.1377 247.609,76.3043 244.5,77C 242.141,78.2425 240.141,79.7425 238.5,81.5C 235.004,77.828 232.004,73.828 229.5,69.5C 233.63,64.8688 237.963,60.3688 242.5,56C 243.928,55.4209 245.262,55.5876 246.5,56.5 Z"/></g>
<g><path style="opacity:1" fill="#d0b16b" d="M 97.5,82.5 C 95.7664,86.2996 93.7664,89.9663 91.5,93.5C 90.0633,89.8915 88.5633,86.2249 87,82.5C 86.6827,84.3008 86.016,84.6341 85,83.5C 82.9681,85.3035 80.8015,85.8035 78.5,85C 79.2931,83.9148 79.9598,82.7481 80.5,81.5C 79.1822,80.962 77.5155,80.1286 75.5,79C 76.3279,78.0853 77.3279,77.4186 78.5,77C 77.7471,75.513 76.9138,75.3463 76,76.5C 75.0766,75.2412 74.2432,73.9079 73.5,72.5C 72.1667,73.5 70.8333,74.5 69.5,75.5C 66.1777,82.2998 63.3444,89.2998 61,96.5C 60.5357,95.9056 60.369,95.2389 60.5,94.5C 62.121,90.2572 63.4544,85.9239 64.5,81.5C 66.0831,78.6126 67.5831,75.6126 69,72.5C 69.3333,72.8333 69.6667,73.1667 70,73.5C 71.517,71.7605 73.017,70.0938 74.5,68.5C 75.8366,67.6851 76.8366,66.5185 77.5,65C 78.9437,64.2195 80.277,64.3861 81.5,65.5C 80.2095,68.393 80.7095,71.0596 83,73.5C 83.3076,72.6919 83.8076,72.0253 84.5,71.5C 85.2304,73.3413 85.8971,75.1746 86.5,77C 87.6716,77.3534 88.8382,77.1868 90,76.5C 90.9503,77.0223 91.7836,77.689 92.5,78.5C 95.4495,77.7482 97.1161,79.0815 97.5,82.5 Z"/></g>
<g><path style="opacity:1" fill="#dcc078" d="M 104.5,74.5 C 102.138,77.192 99.8044,79.8587 97.5,82.5C 97.1161,79.0815 95.4495,77.7482 92.5,78.5C 91.7836,77.689 90.9503,77.0223 90,76.5C 88.8382,77.1868 87.6716,77.3534 86.5,77C 85.8971,75.1746 85.2304,73.3413 84.5,71.5C 83.8076,72.0253 83.3076,72.6919 83,73.5C 80.7095,71.0596 80.2095,68.393 81.5,65.5C 80.277,64.3861 78.9437,64.2195 77.5,65C 76.8366,66.5185 75.8366,67.6851 74.5,68.5C 75.4442,64.3888 77.9442,61.7221 82,60.5C 83.016,61.6341 83.6827,61.3008 84,59.5C 86.5104,60.1087 88.5104,61.442 90,63.5C 90.6368,61.6969 91.8035,60.3636 93.5,59.5C 96.0856,63.9697 99.7523,67.3031 104.5,69.5C 103.019,70.4803 101.685,71.647 100.5,73C 101.563,74.1882 102.897,74.6882 104.5,74.5 Z"/></g>
<g><path style="opacity:1" fill="#0e0d09" d="M 246.5,56.5 C 245.262,55.5876 243.928,55.4209 242.5,56C 237.963,60.3688 233.63,64.8688 229.5,69.5C 228.402,70.6009 228.235,71.9343 229,73.5C 240.871,86.5817 249.038,101.582 253.5,118.5C 253.5,119.5 253.5,120.5 253.5,121.5C 254.392,128.791 254.726,136.124 254.5,143.5C 252.929,168.974 242.596,189.974 223.5,206.5C 204.091,221.297 182.091,227.63 157.5,225.5C 149.186,223.399 140.852,221.066 132.5,218.5C 125.726,214.271 119.06,209.771 112.5,205C 108.269,200.938 104.269,196.771 100.5,192.5C 91.51,179.539 85.8434,165.206 83.5,149.5C 83.0194,144.853 82.6861,140.186 82.5,135.5C 83.659,127.561 84.659,119.561 85.5,111.5C 90.499,97.1863 98.3323,84.5197 109,73.5C 109.74,72.2506 109.573,71.2506 108.5,70.5C 103.575,64.0704 98.0748,58.0704 92,52.5C 90.9202,49.7629 91.7536,48.0963 94.5,47.5C 96.7655,48.4316 98.7655,49.7649 100.5,51.5C 104.195,55.5259 107.862,59.5259 111.5,63.5C 112.458,64.9616 113.624,66.2949 115,67.5C 124.736,59.0488 135.902,53.3821 148.5,50.5C 160.747,48.2196 173.08,47.8863 185.5,49.5C 198.97,52.7207 211.137,58.7207 222,67.5C 223.417,66.9221 224.25,65.9221 224.5,64.5C 228.86,60.8062 232.86,56.8062 236.5,52.5C 238.273,51.6857 238.773,50.3524 238,48.5C 234.271,44.6019 230.438,40.9352 226.5,37.5C 229.952,37.1803 233.285,37.1803 236.5,37.5C 237.258,36.1886 238.258,35.6886 239.5,36C 239.167,36.3333 238.833,36.6667 238.5,37C 239.516,37.5194 240.182,38.3527 240.5,39.5C 239.018,41.4957 238.351,43.4957 238.5,45.5C 241.138,47.1025 243.805,47.6025 246.5,47C 245.109,48.6501 243.609,49.1501 242,48.5C 241.28,50.1124 241.446,51.6124 242.5,53C 244.256,53.2022 245.922,53.7022 247.5,54.5C 247.137,55.1835 246.804,55.8501 246.5,56.5 Z"/></g>
<g><path style="opacity:1" fill="#3c3325" d="M 162.5,78.5 C 164.167,78.5 165.833,78.5 167.5,78.5C 167.5,84.1667 167.5,89.8333 167.5,95.5C 166.512,90.3595 166.179,85.0262 166.5,79.5C 162.131,79.4672 157.798,79.8005 153.5,80.5C 156.171,78.8819 159.171,78.2153 162.5,78.5 Z"/></g>
<g><path style="opacity:1" fill="#e1d19b" d="M 217.5,82.5 C 216.883,82.6107 216.383,82.944 216,83.5C 215.315,93.984 214.482,93.984 213.5,83.5C 211.139,83.6741 208.806,84.0074 206.5,84.5C 204.5,84.5 203.5,83.5 203.5,81.5C 206.789,80.6261 210.123,79.9595 213.5,79.5C 213.642,75.9436 214.476,72.6103 216,69.5C 218.203,71.6688 219.036,74.3354 218.5,77.5C 220.857,77.3367 223.19,77.5034 225.5,78C 225.957,78.414 226.291,78.914 226.5,79.5C 223.578,80.7976 220.578,81.7976 217.5,82.5 Z"/></g>
<g><path style="opacity:1" fill="#d3c28f" d="M 118.5,69.5 C 124.374,72.3683 129.041,76.7016 132.5,82.5C 132.113,83.7199 131.28,84.3865 130,84.5C 127.981,82.757 125.814,81.5903 123.5,81C 122.101,82.0616 121.101,83.395 120.5,85C 121.5,86.6667 122.5,88.3333 123.5,90C 123.387,91.2798 122.72,92.1131 121.5,92.5C 117.528,88.1927 113.528,83.8593 109.5,79.5C 109.887,78.2801 110.72,77.6135 112,77.5C 113.96,78.2918 115.46,79.6251 116.5,81.5C 119.099,80.101 120.599,78.101 121,75.5C 118.272,74.033 117.439,72.033 118.5,69.5 Z"/></g>
<g><path style="opacity:1" fill="#938569" d="M 179.5,76.5 C 182.659,77.3307 185.659,78.3307 188.5,79.5C 187.167,79.5 186.5,80.1667 186.5,81.5C 181.107,79.1211 175.44,78.1211 169.5,78.5C 169.829,84.5368 169.496,90.5368 168.5,96.5C 167.893,96.3764 167.56,96.0431 167.5,95.5C 167.5,89.8333 167.5,84.1667 167.5,78.5C 165.833,78.5 164.167,78.5 162.5,78.5C 164.434,77.4684 166.6,76.8017 169,76.5C 172.66,77.6644 176.16,77.6644 179.5,76.5 Z"/></g>
<g><path style="opacity:1" fill="#777057" d="M 134.5,60.5 C 134.176,67.3543 134.509,74.021 135.5,80.5C 135.44,81.0431 135.107,81.3764 134.5,81.5C 133.181,74.344 133.181,67.344 134.5,60.5 Z"/></g>
<g><path style="opacity:1" fill="#bea66f" d="M 200.5,80.5 C 199.034,77.9673 197.034,75.9673 194.5,74.5C 193.048,73.6981 191.382,73.1981 189.5,73C 191.833,71.1667 194.167,69.3333 196.5,67.5C 197.298,67.9569 197.631,68.6236 197.5,69.5C 196.147,70.8671 196.481,71.8671 198.5,72.5C 199.429,71.3112 199.762,69.9778 199.5,68.5C 198.046,65.6001 199.046,64.2668 202.5,64.5C 203.113,70.2709 202.446,75.6042 200.5,80.5 Z"/></g>
<g><path style="opacity:1" fill="#d9c996" d="M 134.5,60.5 C 140.064,63.7232 145.064,67.7232 149.5,72.5C 148.252,74.69 146.586,75.0234 144.5,73.5C 142.833,74.3333 141.167,75.1667 139.5,76C 138.663,77.0113 138.33,78.1779 138.5,79.5C 137.209,79.2627 136.209,79.596 135.5,80.5C 134.509,74.021 134.176,67.3543 134.5,60.5 Z"/></g>
<g><path style="opacity:1" fill="#291f16" d="M 138.5,68.5 C 140.332,69.1405 140.665,70.1405 139.5,71.5C 138.614,70.675 138.281,69.675 138.5,68.5 Z"/></g>
<g><path style="opacity:1" fill="#9f8f6e" d="M 203.5,81.5 C 202.209,81.7373 201.209,81.404 200.5,80.5C 202.446,75.6042 203.113,70.2709 202.5,64.5C 199.046,64.2668 198.046,65.6001 199.5,68.5C 198.833,68.8333 198.167,69.1667 197.5,69.5C 197.631,68.6236 197.298,67.9569 196.5,67.5C 194.167,69.3333 191.833,71.1667 189.5,73C 191.382,73.1981 193.048,73.6981 194.5,74.5C 192.488,75.0138 190.488,75.1805 188.5,75C 187.269,73.8173 187.269,72.6507 188.5,71.5C 192.644,68.5237 196.644,65.357 200.5,62C 201.448,61.5172 202.448,61.3505 203.5,61.5C 203.5,68.1667 203.5,74.8333 203.5,81.5 Z"/></g>
<g><path style="opacity:1" fill="#34291a" d="M 199.5,68.5 C 199.762,69.9778 199.429,71.3112 198.5,72.5C 196.481,71.8671 196.147,70.8671 197.5,69.5C 198.167,69.1667 198.833,68.8333 199.5,68.5 Z"/></g>
<g><path style="opacity:1" fill="#544c3b" d="M 155.5,63.5 C 156.434,64.5676 156.768,65.901 156.5,67.5C 158.833,67.5 161.167,67.5 163.5,67.5C 163.768,69.099 163.434,70.4324 162.5,71.5C 162.5,70.5 162.5,69.5 162.5,68.5C 160.167,68.5 157.833,68.5 155.5,68.5C 155.5,66.8333 155.5,65.1667 155.5,63.5 Z"/></g>
<g><path style="opacity:1" fill="#c4b587" d="M 155.5,63.5 C 155.5,65.1667 155.5,66.8333 155.5,68.5C 157.833,68.5 160.167,68.5 162.5,68.5C 162.5,69.5 162.5,70.5 162.5,71.5C 159.447,71.9107 156.447,72.5774 153.5,73.5C 153.167,73.1667 152.833,72.8333 152.5,72.5C 151.18,66.5545 150.18,60.5545 149.5,54.5C 151.167,54.5 152.833,54.5 154.5,54.5C 154.704,57.5176 155.037,60.5176 155.5,63.5 Z"/></g>
<g><path style="opacity:1" fill="#927e55" d="M 177.5,53.5 C 180.91,53.4571 184.243,53.9571 187.5,55C 189.107,56.049 189.773,57.549 189.5,59.5C 186.794,59.4249 184.127,59.0916 181.5,58.5C 181.5,59.8333 181.5,61.1667 181.5,62.5C 183.167,62.5 184.833,62.5 186.5,62.5C 186.5,63.8333 186.5,65.1667 186.5,66.5C 182.221,65.4536 179.555,66.9536 178.5,71C 177.056,71.7805 175.723,71.6139 174.5,70.5C 175.607,64.8557 176.607,59.189 177.5,53.5 Z"/></g>
<g><path style="opacity:1" fill="#9e875c" d="M 166.5,52.5 C 167.833,52.5 169.167,52.5 170.5,52.5C 170.5,58.8333 170.5,65.1667 170.5,71.5C 169.167,71.5 167.833,71.5 166.5,71.5C 166.5,65.1667 166.5,58.8333 166.5,52.5 Z"/></g>
<g><path style="opacity:1" fill="#887546" d="M 148.5,47.5 C 148.5,48.5 148.5,49.5 148.5,50.5C 135.902,53.3821 124.736,59.0488 115,67.5C 113.624,66.2949 112.458,64.9616 111.5,63.5C 112.583,63.5394 113.583,63.8728 114.5,64.5C 123.638,56.7651 133.971,51.4317 145.5,48.5C 146.609,48.4431 147.609,48.1098 148.5,47.5 Z"/></g>
<g><path style="opacity:1" fill="#ada17a" d="M 217.5,82.5 C 217.54,85.8806 217.207,89.2139 216.5,92.5C 215.178,92.67 214.011,92.3366 213,91.5C 212.814,89.0995 212.314,86.7662 211.5,84.5C 209.684,85.7349 208.017,85.7349 206.5,84.5C 208.806,84.0074 211.139,83.6741 213.5,83.5C 214.482,93.984 215.315,93.984 216,83.5C 216.383,82.944 216.883,82.6107 217.5,82.5 Z"/></g>
<g><path style="opacity:1" fill="#81693d" d="M 64.5,77.5 C 64.5,78.8333 64.5,80.1667 64.5,81.5C 63.4544,85.9239 62.121,90.2572 60.5,94.5C 59.2879,97.7796 58.2879,101.113 57.5,104.5C 57.5237,99.0767 58.1903,93.7434 59.5,88.5C 60.7687,84.5919 62.4353,80.9252 64.5,77.5 Z"/></g>
<g><path style="opacity:1" fill="#887347" d="M 108.5,70.5 C 109.573,71.2506 109.74,72.2506 109,73.5C 98.3323,84.5197 90.499,97.1863 85.5,111.5C 87.1254,105.37 89.1254,99.3703 91.5,93.5C 93.7664,89.9663 95.7664,86.2996 97.5,82.5C 99.8044,79.8587 102.138,77.192 104.5,74.5C 105.5,72.8333 106.833,71.5 108.5,70.5 Z"/></g>
<g><path style="opacity:1" fill="#bdb18d" d="M 188.5,79.5 C 209.456,88.3865 222.123,104.053 226.5,126.5C 226.665,130.182 226.499,133.848 226,137.5C 225.817,134.635 225.317,131.969 224.5,129.5C 222.456,115.152 216.123,103.152 205.5,93.5C 205.598,90.7524 204.598,90.0857 202.5,91.5C 198.011,87.0487 192.677,83.7154 186.5,81.5C 186.5,80.1667 187.167,79.5 188.5,79.5 Z"/></g>
<g><path style="opacity:1" fill="#eed88f" d="M 263.5,85.5 C 263.777,88.4475 263.444,91.2809 262.5,94C 266.537,96.9178 266.203,97.9178 261.5,97C 264.186,100.476 263.853,100.976 260.5,98.5C 259.28,99.7111 258.113,99.7111 257,98.5C 256.683,100.301 256.016,100.634 255,99.5C 254.667,100.833 254.333,102.167 254,103.5C 253.667,103.167 253.333,102.833 253,102.5C 252.722,103.416 252.222,104.082 251.5,104.5C 247.97,96.4461 243.636,88.7794 238.5,81.5C 240.141,79.7425 242.141,78.2425 244.5,77C 247.609,76.3043 250.442,75.1377 253,73.5C 256.292,77.8 259.792,81.8 263.5,85.5 Z"/></g>
<g><path style="opacity:1" fill="#0c0c0a" d="M 186.5,81.5 C 192.677,83.7154 198.011,87.0487 202.5,91.5C 191.086,102.248 180.086,113.248 169.5,124.5C 167.246,123.585 165.246,122.252 163.5,120.5C 161.167,117.5 158.5,114.833 155.5,112.5C 148.338,105.171 141.338,97.6709 134.5,90C 140.046,85.2269 146.38,82.0602 153.5,80.5C 157.798,79.8005 162.131,79.4672 166.5,79.5C 166.179,85.0262 166.512,90.3595 167.5,95.5C 167.56,96.0431 167.893,96.3764 168.5,96.5C 169.496,90.5368 169.829,84.5368 169.5,78.5C 175.44,78.1211 181.107,79.1211 186.5,81.5 Z"/></g>
<g><path style="opacity:1" fill="#917e50" d="M 229.5,69.5 C 232.004,73.828 235.004,77.828 238.5,81.5C 243.636,88.7794 247.97,96.4461 251.5,104.5C 252.167,107.833 252.833,111.167 253.5,114.5C 253.5,115.833 253.5,117.167 253.5,118.5C 249.038,101.582 240.871,86.5817 229,73.5C 228.235,71.9343 228.402,70.6009 229.5,69.5 Z"/></g>
<g><path style="opacity:1" fill="#b3914f" d="M 91.5,93.5 C 89.1254,99.3703 87.1254,105.37 85.5,111.5C 84.659,119.561 83.659,127.561 82.5,135.5C 82.6861,140.186 83.0194,144.853 83.5,149.5C 82.8333,148.5 82.1667,147.5 81.5,146.5C 81.7845,144.585 81.4511,142.919 80.5,141.5C 77.3586,140.679 74.0252,140.179 70.5,140C 73.5,139.667 76.5,139.333 79.5,139C 80.6023,136.599 80.769,134.099 80,131.5C 79.6667,133.5 79.3333,135.5 79,137.5C 78.7787,134.057 77.7787,133.724 76,136.5C 74.049,134.863 74.2157,133.363 76.5,132C 74.2992,131.175 72.4659,131.675 71,133.5C 69.3333,133.167 67.6667,132.833 66,132.5C 64.0501,139.064 63.2167,138.731 63.5,131.5C 62.1779,131.67 61.0113,131.337 60,130.5C 59.5,131 59,131.5 58.5,132C 58.781,135.017 58.781,138.183 58.5,141.5C 56.9865,135.405 56.3198,129.072 56.5,122.5C 56.6288,116.479 56.9622,110.479 57.5,104.5C 58.2879,101.113 59.2879,97.7796 60.5,94.5C 60.369,95.2389 60.5357,95.9056 61,96.5C 63.3444,89.2998 66.1777,82.2998 69.5,75.5C 70.8333,74.5 72.1667,73.5 73.5,72.5C 74.2432,73.9079 75.0766,75.2412 76,76.5C 76.9138,75.3463 77.7471,75.513 78.5,77C 77.3279,77.4186 76.3279,78.0853 75.5,79C 77.5155,80.1286 79.1822,80.962 80.5,81.5C 79.9598,82.7481 79.2931,83.9148 78.5,85C 80.8015,85.8035 82.9681,85.3035 85,83.5C 86.016,84.6341 86.6827,84.3008 87,82.5C 88.5633,86.2249 90.0633,89.8915 91.5,93.5 Z"/></g>
<g><path style="opacity:1" fill="#d0c090" d="M 179.5,76.5 C 176.16,77.6644 172.66,77.6644 169,76.5C 166.6,76.8017 164.434,77.4684 162.5,78.5C 159.171,78.2153 156.171,78.8819 153.5,80.5C 146.38,82.0602 140.046,85.2269 134.5,90C 141.338,97.6709 148.338,105.171 155.5,112.5C 153.883,111.962 152.216,111.629 150.5,111.5C 149.773,115.224 151.106,117.891 154.5,119.5C 153.975,120.192 153.308,120.692 152.5,121C 154.457,122.746 155.457,124.912 155.5,127.5C 154.248,129.001 153.248,130.668 152.5,132.5C 149.365,135.808 146.365,139.308 143.5,143C 141.833,143.333 140.167,143.667 138.5,144C 137.915,145.302 137.249,146.469 136.5,147.5C 135.533,142.633 137.533,140.466 142.5,141C 146.858,136.443 150.858,131.61 154.5,126.5C 152.183,123.683 149.683,121.016 147,118.5C 146.871,115.696 147.204,113.03 148,110.5C 142.306,104.806 136.64,99.1396 131,93.5C 129.482,94.1634 128.315,95.1634 127.5,96.5C 126.508,96.6716 125.842,96.3382 125.5,95.5C 139.848,79.2704 157.848,72.9371 179.5,76.5 Z"/></g>
<g><path style="opacity:1" fill="#dfd09b" d="M 205.5,93.5 C 199.866,99.304 194.366,105.304 189,111.5C 190.094,113.594 190.428,115.927 190,118.5C 187.628,120.703 185.461,123.037 183.5,125.5C 182.596,126.209 182.263,127.209 182.5,128.5C 181.34,126.831 181.34,124.997 182.5,123C 189.86,115.711 188.86,113.711 179.5,117C 176.568,120.442 173.235,123.275 169.5,125.5C 169.5,125.167 169.5,124.833 169.5,124.5C 180.086,113.248 191.086,102.248 202.5,91.5C 204.598,90.0857 205.598,90.7524 205.5,93.5 Z"/></g>
<g><path style="opacity:1" fill="#0d0d0b" d="M 136.5,147.5 C 131.982,152.179 126.982,156.346 121.5,160C 119.963,161.11 119.297,162.61 119.5,164.5C 116.734,159.883 114.734,154.883 113.5,149.5C 113.037,146.518 112.704,143.518 112.5,140.5C 118.537,140.829 124.537,140.496 130.5,139.5C 130.376,138.893 130.043,138.56 129.5,138.5C 123.642,138.822 117.975,138.489 112.5,137.5C 112.194,121.8 117.194,108.133 127.5,96.5C 128.315,95.1634 129.482,94.1634 131,93.5C 136.64,99.1396 142.306,104.806 148,110.5C 147.204,113.03 146.871,115.696 147,118.5C 149.683,121.016 152.183,123.683 154.5,126.5C 150.858,131.61 146.858,136.443 142.5,141C 137.533,140.466 135.533,142.633 136.5,147.5 Z"/></g>
<g><path style="opacity:1" fill="#d3b66f" d="M 263.5,85.5 C 264.674,86.5137 265.34,87.847 265.5,89.5C 268.135,98.3077 269.802,107.308 270.5,116.5C 270.892,119.722 270.392,122.722 269,125.5C 268.031,122.283 266.364,122.283 264,125.5C 263.798,123.744 263.298,122.078 262.5,120.5C 261.833,121.167 261.167,121.833 260.5,122.5C 259.289,121.726 259.289,120.893 260.5,120C 259.167,119.667 257.833,119.333 256.5,119C 255.601,117.348 254.601,115.848 253.5,114.5C 252.833,111.167 252.167,107.833 251.5,104.5C 252.222,104.082 252.722,103.416 253,102.5C 253.333,102.833 253.667,103.167 254,103.5C 254.333,102.167 254.667,100.833 255,99.5C 256.016,100.634 256.683,100.301 257,98.5C 258.113,99.7111 259.28,99.7111 260.5,98.5C 263.853,100.976 264.186,100.476 261.5,97C 266.203,97.9178 266.537,96.9178 262.5,94C 263.444,91.2809 263.777,88.4475 263.5,85.5 Z"/></g>
<g><path style="opacity:1" fill="#edd68e" d="M 182.5,128.5 C 180.607,131.36 178.107,132.027 175,130.5C 172.432,130.934 169.932,131.6 167.5,132.5C 168.111,130.562 168.111,128.395 167.5,126C 168.094,125.536 168.761,125.369 169.5,125.5C 173.235,123.275 176.568,120.442 179.5,117C 188.86,113.711 189.86,115.711 182.5,123C 181.34,124.997 181.34,126.831 182.5,128.5 Z"/></g>
<g><path style="opacity:1" fill="#918162" d="M 125.5,95.5 C 125.842,96.3382 126.508,96.6716 127.5,96.5C 117.194,108.133 112.194,121.8 112.5,137.5C 111.833,134.5 111.167,131.5 110.5,128.5C 111.498,115.555 116.498,104.555 125.5,95.5 Z"/></g>
<g><path style="opacity:1" fill="#bb9a56" d="M 253.5,114.5 C 254.601,115.848 255.601,117.348 256.5,119C 257.833,119.333 259.167,119.667 260.5,120C 259.289,120.893 259.289,121.726 260.5,122.5C 261.167,121.833 261.833,121.167 262.5,120.5C 263.298,122.078 263.798,123.744 264,125.5C 266.364,122.283 268.031,122.283 269,125.5C 270.392,122.722 270.892,119.722 270.5,116.5C 271.473,118.948 271.806,121.615 271.5,124.5C 271.662,126.527 271.495,128.527 271,130.5C 270.333,131.833 269.667,131.833 269,130.5C 268.667,131.5 268.333,132.5 268,133.5C 266.638,132.075 265.138,131.242 263.5,131C 264.167,130.667 264.833,130.333 265.5,130C 264.333,129.5 263.5,128.667 263,127.5C 262.667,129.833 262.333,132.167 262,134.5C 260.867,132.789 259.367,132.289 257.5,133C 257.966,134.299 257.966,135.799 257.5,137.5C 260.448,137.777 263.281,137.444 266,136.5C 266.827,137.662 267.66,138.829 268.5,140C 268.333,140.5 268.167,141 268,141.5C 264.527,139.54 260.694,138.54 256.5,138.5C 256.55,133.448 256.05,128.448 255,123.5C 254.722,122.584 254.222,121.918 253.5,121.5C 253.5,120.5 253.5,119.5 253.5,118.5C 253.5,117.167 253.5,115.833 253.5,114.5 Z"/></g>
<g><path style="opacity:1" fill="#e0c884" d="M 155.5,112.5 C 158.5,114.833 161.167,117.5 163.5,120.5C 163.461,121.583 163.127,122.583 162.5,123.5C 163.578,126.207 164.578,128.874 165.5,131.5C 161.901,130.747 158.567,129.413 155.5,127.5C 155.457,124.912 154.457,122.746 152.5,121C 153.308,120.692 153.975,120.192 154.5,119.5C 151.106,117.891 149.773,115.224 150.5,111.5C 152.216,111.629 153.883,111.962 155.5,112.5 Z"/></g>
<g><path style="opacity:1" fill="#745d38" d="M 265.5,89.5 C 272.282,102.726 275.282,116.892 274.5,132C 274.306,138.914 273.473,145.747 272,152.5C 271.122,156.052 269.956,159.386 268.5,162.5C 269.773,155.23 270.606,147.896 271,140.5C 271.333,140.833 271.667,141.167 272,141.5C 272.818,135.651 272.652,129.985 271.5,124.5C 271.806,121.615 271.473,118.948 270.5,116.5C 269.802,107.308 268.135,98.3077 265.5,89.5 Z"/></g>
<g><path style="opacity:1" fill="#b49e6c" d="M 100.5,138.5 C 97.1749,140.114 96.8415,142.114 99.5,144.5C 98.4855,145.765 96.9855,146.431 95,146.5C 93.5,146.333 92,146.167 90.5,146C 91.9552,143.984 93.9552,143.151 96.5,143.5C 96.5,142.167 96.5,140.833 96.5,139.5C 93.7081,139.548 91.8747,138.215 91,135.5C 90.2888,133.633 90.7888,132.133 92.5,131C 95.1667,130.333 97.8333,130.333 100.5,131C 103.086,133.494 103.086,135.994 100.5,138.5 Z"/></g>
<g><path style="opacity:1" fill="#aa8f59" d="M 245.5,138.5 C 243.477,140.701 241.144,141.034 238.5,139.5C 236.863,138.026 235.863,136.192 235.5,134C 235.755,132.674 236.422,131.674 237.5,131C 240.634,130.21 243.634,130.543 246.5,132C 247.022,132.561 247.355,133.228 247.5,134C 246.586,135.406 245.92,136.906 245.5,138.5 Z"/></g>
<g><path style="opacity:1" fill="#c7a863" d="M 80.5,141.5 C 78.5,141.5 76.5,141.5 74.5,141.5C 74.6567,142.873 74.49,144.207 74,145.5C 72.951,143.893 71.451,143.227 69.5,143.5C 69.7254,145.716 68.8921,147.383 67,148.5C 66.7006,145.531 65.2006,144.031 62.5,144C 62.6158,145.268 62.9491,146.602 63.5,148C 62.2625,148.232 61.2625,148.732 60.5,149.5C 58.7773,147.22 58.1107,144.553 58.5,141.5C 58.781,138.183 58.781,135.017 58.5,132C 59,131.5 59.5,131 60,130.5C 61.0113,131.337 62.1779,131.67 63.5,131.5C 63.2167,138.731 64.0501,139.064 66,132.5C 67.6667,132.833 69.3333,133.167 71,133.5C 72.4659,131.675 74.2992,131.175 76.5,132C 74.2157,133.363 74.049,134.863 76,136.5C 77.7787,133.724 78.7787,134.057 79,137.5C 79.3333,135.5 79.6667,133.5 80,131.5C 80.769,134.099 80.6023,136.599 79.5,139C 76.5,139.333 73.5,139.667 70.5,140C 74.0252,140.179 77.3586,140.679 80.5,141.5 Z"/></g>
<g><path style="opacity:1" fill="#928160" d="M 226.5,126.5 C 230.367,146.703 225.367,164.37 211.5,179.5C 211.473,177.801 210.806,176.467 209.5,175.5C 211.017,175.489 212.184,174.823 213,173.5C 219.7,163.571 223.533,152.571 224.5,140.5C 218.794,140.829 213.128,140.495 207.5,139.5C 208.376,138.749 209.376,138.249 210.5,138C 215.155,137.501 219.821,137.334 224.5,137.5C 224.5,134.833 224.5,132.167 224.5,129.5C 225.317,131.969 225.817,134.635 226,137.5C 226.499,133.848 226.665,130.182 226.5,126.5 Z"/></g>
<g><path style="opacity:1" fill="#cab890" d="M 110.5,128.5 C 111.167,131.5 111.833,134.5 112.5,137.5C 117.975,138.489 123.642,138.822 129.5,138.5C 123.69,139.49 117.69,139.823 111.5,139.5C 110,140.513 109.666,137.179 110.5,129.5C 110.5,129.167 110.5,128.833 110.5,128.5 Z"/></g>
<g><path style="opacity:1" fill="#b09358" d="M 163.5,120.5 C 165.246,122.252 167.246,123.585 169.5,124.5C 169.5,124.833 169.5,125.167 169.5,125.5C 168.761,125.369 168.094,125.536 167.5,126C 168.111,128.395 168.111,130.562 167.5,132.5C 169.932,131.6 172.432,130.934 175,130.5C 178.107,132.027 180.607,131.36 182.5,128.5C 182.263,127.209 182.596,126.209 183.5,125.5C 186.145,131.325 189.812,136.491 194.5,141C 198.898,140.408 200.898,142.241 200.5,146.5C 199.685,145.571 198.852,144.571 198,143.5C 197.73,146.919 198.897,149.752 201.5,152C 199.833,152.833 198.167,153.667 196.5,154.5C 195.478,154.145 194.811,153.478 194.5,152.5C 193.883,152.611 193.383,152.944 193,153.5C 189.771,150.307 186.938,146.807 184.5,143C 179.53,141.849 175.197,139.682 171.5,136.5C 170.279,135.972 169.113,135.305 168,134.5C 167.133,137.521 167.633,140.188 169.5,142.5C 168.5,142.5 167.5,142.5 166.5,142.5C 166.665,139.482 166.498,136.482 166,133.5C 165.617,134.056 165.117,134.389 164.5,134.5C 164.083,133.876 163.416,133.543 162.5,133.5C 160.959,134.286 159.626,135.286 158.5,136.5C 158.167,136.5 157.833,136.5 157.5,136.5C 158.562,135.425 158.562,134.425 157.5,133.5C 155.929,132.691 154.262,132.357 152.5,132.5C 153.248,130.668 154.248,129.001 155.5,127.5C 158.567,129.413 161.901,130.747 165.5,131.5C 164.578,128.874 163.578,126.207 162.5,123.5C 163.127,122.583 163.461,121.583 163.5,120.5 Z"/></g>
<g><path style="opacity:1" fill="#4f4636" d="M 100.5,138.5 C 100.387,141.049 101.054,143.382 102.5,145.5C 102.167,145.833 101.833,146.167 101.5,146.5C 100.818,145.757 100.151,145.091 99.5,144.5C 96.8415,142.114 97.1749,140.114 100.5,138.5 Z"/></g>
<g><path style="opacity:1" fill="#988a6b" d="M 110.5,129.5 C 109.666,137.179 110,140.513 111.5,139.5C 117.69,139.823 123.69,139.49 129.5,138.5C 130.043,138.56 130.376,138.893 130.5,139.5C 124.537,140.496 118.537,140.829 112.5,140.5C 112.704,143.518 113.037,146.518 113.5,149.5C 112.732,148.737 112.232,147.737 112,146.5C 111.51,147.793 111.343,149.127 111.5,150.5C 110.046,146.426 109.379,142.093 109.5,137.5C 109.503,134.645 109.836,131.978 110.5,129.5 Z"/></g>
<g><path style="opacity:1" fill="#0d0d0a" d="M 205.5,93.5 C 216.123,103.152 222.456,115.152 224.5,129.5C 224.5,132.167 224.5,134.833 224.5,137.5C 219.821,137.334 215.155,137.501 210.5,138C 209.376,138.249 208.376,138.749 207.5,139.5C 213.128,140.495 218.794,140.829 224.5,140.5C 223.533,152.571 219.7,163.571 213,173.5C 212.184,174.823 211.017,175.489 209.5,175.5C 207.625,172.412 206.292,169.078 205.5,165.5C 206.167,165.167 206.833,164.833 207.5,164.5C 210.524,169.79 213.691,169.79 217,164.5C 217.667,163.5 217.667,162.5 217,161.5C 211.305,156.634 205.805,151.634 200.5,146.5C 200.898,142.241 198.898,140.408 194.5,141C 189.812,136.491 186.145,131.325 183.5,125.5C 185.461,123.037 187.628,120.703 190,118.5C 190.428,115.927 190.094,113.594 189,111.5C 194.366,105.304 199.866,99.304 205.5,93.5 Z"/></g>
<g><path style="opacity:1" fill="#605748" d="M 245.5,138.5 C 245.387,141.049 246.054,143.382 247.5,145.5C 247.113,146.72 246.28,147.387 245,147.5C 244.839,145.368 243.672,143.368 241.5,141.5C 238.465,143.04 237.465,142.373 238.5,139.5C 241.144,141.034 243.477,140.701 245.5,138.5 Z"/></g>
<g><path style="opacity:1" fill="#997a41" d="M 169.5,142.5 C 169.5,142.833 169.5,143.167 169.5,143.5C 168.325,143.281 167.325,143.614 166.5,144.5C 160.477,151.52 154.477,158.52 148.5,165.5C 145.416,166.761 143.582,169.094 143,172.5C 142.184,173.823 141.017,174.489 139.5,174.5C 141.568,169.609 144.235,165.109 147.5,161C 147.167,160.667 146.833,160.333 146.5,160C 150.51,156.155 154.177,151.989 157.5,147.5C 158.783,145.27 159.783,142.937 160.5,140.5C 162.226,138.772 163.559,136.772 164.5,134.5C 165.117,134.389 165.617,134.056 166,133.5C 166.498,136.482 166.665,139.482 166.5,142.5C 167.5,142.5 168.5,142.5 169.5,142.5 Z"/></g>
<g><path style="opacity:1" fill="#908d7b" d="M 235.5,143.5 C 241.742,145.569 241.742,146.569 235.5,146.5C 235.5,145.5 235.5,144.5 235.5,143.5 Z"/></g>
<g><path style="opacity:1" fill="#d8bc72" d="M 80.5,141.5 C 81.4511,142.919 81.7845,144.585 81.5,146.5C 81.5,148.5 81.5,150.5 81.5,152.5C 81.5213,160.418 79.0213,161.751 74,156.5C 71.4596,159.655 68.7929,159.989 66,157.5C 65.3292,158.252 64.4959,158.586 63.5,158.5C 62.8333,157.5 62.1667,156.5 61.5,155.5C 60.8505,153.565 60.5172,151.565 60.5,149.5C 61.2625,148.732 62.2625,148.232 63.5,148C 62.9491,146.602 62.6158,145.268 62.5,144C 65.2006,144.031 66.7006,145.531 67,148.5C 68.8921,147.383 69.7254,145.716 69.5,143.5C 71.451,143.227 72.951,143.893 74,145.5C 74.49,144.207 74.6567,142.873 74.5,141.5C 76.5,141.5 78.5,141.5 80.5,141.5 Z"/></g>
<g><path style="opacity:1" fill="#604923" d="M 59.5,88.5 C 58.1903,93.7434 57.5237,99.0767 57.5,104.5C 56.9622,110.479 56.6288,116.479 56.5,122.5C 56.3198,129.072 56.9865,135.405 58.5,141.5C 58.1107,144.553 58.7773,147.22 60.5,149.5C 60.5172,151.565 60.8505,153.565 61.5,155.5C 61.0074,157.806 60.6741,160.139 60.5,162.5C 53.9645,145.172 51.7978,127.172 54,108.5C 54.9235,101.461 56.7569,94.7943 59.5,88.5 Z"/></g>
<g><path style="opacity:1" fill="#0d0d0a" d="M 169.5,143.5 C 176.508,150.508 183.174,157.842 189.5,165.5C 189.337,167.857 189.503,170.19 190,172.5C 191.444,174.155 193.278,174.822 195.5,174.5C 198.115,175.45 200.115,177.117 201.5,179.5C 201.662,181.527 201.495,183.527 201,185.5C 193.705,190.895 185.539,194.228 176.5,195.5C 174.167,195.5 171.833,195.5 169.5,195.5C 168.833,171.5 168.167,171.5 167.5,195.5C 156.754,196.194 147.087,193.361 138.5,187C 134.833,183.828 134.5,180.328 137.5,176.5C 138.167,176.167 138.833,175.833 139.5,175.5C 146.714,175.953 149.714,172.62 148.5,165.5C 154.477,158.52 160.477,151.52 166.5,144.5C 167.325,143.614 168.325,143.281 169.5,143.5 Z"/></g>
<g><path style="opacity:1" fill="#dec887" d="M 152.5,132.5 C 154.262,132.357 155.929,132.691 157.5,133.5C 158.562,134.425 158.562,135.425 157.5,136.5C 156.185,137.476 154.852,138.476 153.5,139.5C 155.733,140.016 157.4,139.016 158.5,136.5C 159.626,135.286 160.959,134.286 162.5,133.5C 163.416,133.543 164.083,133.876 164.5,134.5C 163.559,136.772 162.226,138.772 160.5,140.5C 157.232,143.427 153.899,146.427 150.5,149.5C 147.175,153.827 143.841,158.16 140.5,162.5C 139.675,163.386 138.675,163.719 137.5,163.5C 137.808,161.076 137.474,158.743 136.5,156.5C 135.893,156.624 135.56,156.957 135.5,157.5C 132.365,160.808 129.365,164.308 126.5,168C 125.5,168.667 124.5,168.667 123.5,168C 122.295,166.624 120.962,165.458 119.5,164.5C 119.297,162.61 119.963,161.11 121.5,160C 126.982,156.346 131.982,152.179 136.5,147.5C 137.249,146.469 137.915,145.302 138.5,144C 140.167,143.667 141.833,143.333 143.5,143C 146.365,139.308 149.365,135.808 152.5,132.5 Z"/></g>
<g><path style="opacity:1" fill="#32281d" d="M 146.5,145.5 C 148.028,145.517 148.528,146.184 148,147.5C 146.316,149.351 144.483,151.018 142.5,152.5C 141.479,151.998 141.312,151.332 142,150.5C 143.707,148.963 145.207,147.296 146.5,145.5 Z"/></g>
<g><path style="opacity:1" fill="#5b4a32" d="M 157.5,136.5 C 157.833,136.5 158.167,136.5 158.5,136.5C 157.4,139.016 155.733,140.016 153.5,139.5C 154.852,138.476 156.185,137.476 157.5,136.5 Z"/></g>
<g><path style="opacity:1" fill="#c2a868" d="M 171.5,136.5 C 175.197,139.682 179.53,141.849 184.5,143C 186.938,146.807 189.771,150.307 193,153.5C 193.383,152.944 193.883,152.611 194.5,152.5C 194.811,153.478 195.478,154.145 196.5,154.5C 198.167,153.667 199.833,152.833 201.5,152C 198.897,149.752 197.73,146.919 198,143.5C 198.852,144.571 199.685,145.571 200.5,146.5C 205.805,151.634 211.305,156.634 217,161.5C 217.667,162.5 217.667,163.5 217,164.5C 213.691,169.79 210.524,169.79 207.5,164.5C 205.909,161.569 203.909,158.902 201.5,156.5C 200.702,156.957 200.369,157.624 200.5,158.5C 199.842,159.398 199.176,160.398 198.5,161.5C 193.985,158.524 189.652,154.69 185.5,150C 185.833,149.667 186.167,149.333 186.5,149C 183.498,146.497 180.165,144.497 176.5,143C 173.941,141.492 172.274,139.325 171.5,136.5 Z"/></g>
<g><path style="opacity:1" fill="#312211" d="M 194.5,152.5 C 192.873,150.37 191.04,148.37 189,146.5C 188.333,145.833 188.333,145.167 189,144.5C 191,146.5 193,148.5 195,150.5C 195.692,151.437 195.525,152.103 194.5,152.5 Z"/></g>
<g><path style="opacity:1" fill="#493720" d="M 207.5,164.5 C 206.833,164.833 206.167,165.167 205.5,165.5C 204.214,162.883 202.547,160.55 200.5,158.5C 200.369,157.624 200.702,156.957 201.5,156.5C 203.909,158.902 205.909,161.569 207.5,164.5 Z"/></g>
<g><path style="opacity:1" fill="#4f4938" d="M 112.5,167.5 C 105.745,166.877 99.412,167.544 93.5,169.5C 92.596,168.791 92.2627,167.791 92.5,166.5C 99.3543,166.176 106.021,166.509 112.5,167.5 Z"/></g>
<g><path style="opacity:1" fill="#cdbc85" d="M 112.5,167.5 C 109.265,172.909 105.431,177.909 101,182.5C 99.7202,182.387 98.8869,181.72 98.5,180.5C 99.8334,179.38 100.333,178.047 100,176.5C 98.5896,173.358 96.423,171.025 93.5,169.5C 99.412,167.544 105.745,166.877 112.5,167.5 Z"/></g>
<g><path style="opacity:1" fill="#1d1710" d="M 135.5,157.5 C 136.043,157.56 136.376,157.893 136.5,158.5C 132.469,162.279 130.135,166.946 129.5,172.5C 128.768,173.808 127.934,175.142 127,176.5C 123.457,173.13 120.957,169.13 119.5,164.5C 120.962,165.458 122.295,166.624 123.5,168C 124.5,168.667 125.5,168.667 126.5,168C 129.365,164.308 132.365,160.808 135.5,157.5 Z"/></g>
<g><path style="opacity:1" fill="#a89467" d="M 228.5,164.5 C 232.077,165.901 235.744,167.068 239.5,168C 242.087,169.525 242.92,171.692 242,174.5C 240.999,177.173 239.499,179.507 237.5,181.5C 232.97,179.404 228.637,177.071 224.5,174.5C 223.594,170.307 224.927,166.974 228.5,164.5 Z"/></g>
<g><path style="opacity:1" fill="#c5b580" d="M 81.5,146.5 C 82.1667,147.5 82.8333,148.5 83.5,149.5C 85.8434,165.206 91.51,179.539 100.5,192.5C 98.6282,190.396 96.2948,189.063 93.5,188.5C 92.7904,186.254 92.2904,183.92 92,181.5C 89.4283,176.076 86.9283,170.576 84.5,165C 84.1148,160.539 83.1148,156.372 81.5,152.5C 81.5,150.5 81.5,148.5 81.5,146.5 Z"/></g>
<g><path style="opacity:1" fill="#968f7f" d="M 189.5,165.5 C 190.5,166.5 191.5,167.5 192.5,168.5C 191.624,168.369 190.957,168.702 190.5,169.5C 191.012,172.351 192.679,173.684 195.5,173.5C 195.5,173.833 195.5,174.167 195.5,174.5C 193.278,174.822 191.444,174.155 190,172.5C 189.503,170.19 189.337,167.857 189.5,165.5 Z"/></g>
<g><path style="opacity:1" fill="#e8d18d" d="M 171.5,136.5 C 172.274,139.325 173.941,141.492 176.5,143C 180.165,144.497 183.498,146.497 186.5,149C 186.167,149.333 185.833,149.667 185.5,150C 189.652,154.69 193.985,158.524 198.5,161.5C 199.176,160.398 199.842,159.398 200.5,158.5C 202.547,160.55 204.214,162.883 205.5,165.5C 206.292,169.078 207.625,172.412 209.5,175.5C 210.806,176.467 211.473,177.801 211.5,179.5C 209.781,182.219 207.447,184.219 204.5,185.5C 202.94,183.844 201.94,181.844 201.5,179.5C 200.115,177.117 198.115,175.45 195.5,174.5C 195.5,174.167 195.5,173.833 195.5,173.5C 194.075,172.078 193.075,170.411 192.5,168.5C 191.5,167.5 190.5,166.5 189.5,165.5C 183.174,157.842 176.508,150.508 169.5,143.5C 169.5,143.167 169.5,142.833 169.5,142.5C 167.633,140.188 167.133,137.521 168,134.5C 169.113,135.305 170.279,135.972 171.5,136.5 Z"/></g>
<g><path style="opacity:1" fill="#59472b" d="M 101.5,170.5 C 105.701,170.442 106.201,171.442 103,173.5C 101.961,172.756 101.461,171.756 101.5,170.5 Z"/></g>
<g><path style="opacity:1" fill="#1b1309" d="M 228.5,169.5 C 229.5,169.5 230.5,169.5 231.5,169.5C 231.5,170.5 231.5,171.5 231.5,172.5C 230.5,172.5 229.5,172.5 228.5,172.5C 228.5,171.5 228.5,170.5 228.5,169.5 Z"/></g>
<g><path style="opacity:1" fill="#e4cb7d" d="M 81.5,152.5 C 83.1148,156.372 84.1148,160.539 84.5,165C 86.9283,170.576 89.4283,176.076 92,181.5C 92.2904,183.92 92.7904,186.254 93.5,188.5C 92.8836,190.417 91.5503,191.584 89.5,192C 89.8333,193 90.1667,194 90.5,195C 90,195.5 89.5,196 89,196.5C 87.871,194.859 86.371,193.859 84.5,193.5C 82.8333,192.5 81.5,191.167 80.5,189.5C 72.7197,180.371 67.0531,170.038 63.5,158.5C 64.4959,158.586 65.3292,158.252 66,157.5C 68.7929,159.989 71.4596,159.655 74,156.5C 79.0213,161.751 81.5213,160.418 81.5,152.5 Z"/></g>
<g><path style="opacity:1" fill="#574d3f" d="M 148.5,165.5 C 149.714,172.62 146.714,175.953 139.5,175.5C 139.5,175.167 139.5,174.833 139.5,174.5C 141.017,174.489 142.184,173.823 143,172.5C 143.582,169.094 145.416,166.761 148.5,165.5 Z"/></g>
<g><path style="opacity:1" fill="#382d1c" d="M 192.5,168.5 C 193.075,170.411 194.075,172.078 195.5,173.5C 192.679,173.684 191.012,172.351 190.5,169.5C 190.957,168.702 191.624,168.369 192.5,168.5 Z"/></g>
<g><path style="opacity:1" fill="#ab8848" d="M 253.5,121.5 C 254.222,121.918 254.722,122.584 255,123.5C 256.05,128.448 256.55,133.448 256.5,138.5C 260.694,138.54 264.527,139.54 268,141.5C 268.167,141 268.333,140.5 268.5,140C 267.66,138.829 266.827,137.662 266,136.5C 263.281,137.444 260.448,137.777 257.5,137.5C 257.966,135.799 257.966,134.299 257.5,133C 259.367,132.289 260.867,132.789 262,134.5C 262.333,132.167 262.667,129.833 263,127.5C 263.5,128.667 264.333,129.5 265.5,130C 264.833,130.333 264.167,130.667 263.5,131C 265.138,131.242 266.638,132.075 268,133.5C 268.333,132.5 268.667,131.5 269,130.5C 269.667,131.833 270.333,131.833 271,130.5C 271.495,128.527 271.662,126.527 271.5,124.5C 272.652,129.985 272.818,135.651 272,141.5C 271.667,141.167 271.333,140.833 271,140.5C 270.606,147.896 269.773,155.23 268.5,162.5C 268.5,162.833 268.5,163.167 268.5,163.5C 267.542,163.953 266.708,164.619 266,165.5C 262.05,175.872 256.55,184.539 249.5,191.5C 247.883,192.038 246.216,192.371 244.5,192.5C 244.519,190.94 244.852,189.44 245.5,188C 245.164,186.97 244.497,186.47 243.5,186.5C 252.059,173.261 255.726,158.927 254.5,143.5C 254.726,136.124 254.392,128.791 253.5,121.5 Z"/></g>
<g><path style="opacity:1" fill="#bdaf87" d="M 113.5,149.5 C 114.734,154.883 116.734,159.883 119.5,164.5C 120.957,169.13 123.457,173.13 127,176.5C 127.934,175.142 128.768,173.808 129.5,172.5C 129.753,174.827 129.086,176.827 127.5,178.5C 127.863,179.183 128.196,179.85 128.5,180.5C 127.833,180.5 127.167,180.5 126.5,180.5C 118.321,172.141 113.321,162.141 111.5,150.5C 111.343,149.127 111.51,147.793 112,146.5C 112.232,147.737 112.732,148.737 113.5,149.5 Z"/></g>
<g><path style="opacity:1" fill="#110a04" d="M 234.5,172.5 C 235.5,172.5 236.5,172.5 237.5,172.5C 237.5,173.5 237.5,174.5 237.5,175.5C 236.5,175.5 235.5,175.5 234.5,175.5C 234.5,174.5 234.5,173.5 234.5,172.5 Z"/></g>
<g><path style="opacity:1" fill="#88703c" d="M 61.5,155.5 C 62.1667,156.5 62.8333,157.5 63.5,158.5C 67.0531,170.038 72.7197,180.371 80.5,189.5C 79.8826,189.611 79.3826,189.944 79,190.5C 77.9308,188.593 76.4308,187.259 74.5,186.5C 68.6121,179.263 63.9454,171.263 60.5,162.5C 60.6741,160.139 61.0074,157.806 61.5,155.5 Z"/></g>
<g><path style="opacity:1" fill="#b99b5c" d="M 160.5,140.5 C 159.783,142.937 158.783,145.27 157.5,147.5C 154.177,151.989 150.51,156.155 146.5,160C 146.833,160.333 147.167,160.667 147.5,161C 144.235,165.109 141.568,169.609 139.5,174.5C 139.5,174.833 139.5,175.167 139.5,175.5C 138.833,175.833 138.167,176.167 137.5,176.5C 134.457,177.744 133.124,180.077 133.5,183.5C 131.067,183.727 129.401,182.727 128.5,180.5C 128.196,179.85 127.863,179.183 127.5,178.5C 129.086,176.827 129.753,174.827 129.5,172.5C 130.135,166.946 132.469,162.279 136.5,158.5C 136.376,157.893 136.043,157.56 135.5,157.5C 135.56,156.957 135.893,156.624 136.5,156.5C 137.474,158.743 137.808,161.076 137.5,163.5C 138.675,163.719 139.675,163.386 140.5,162.5C 143.841,158.16 147.175,153.827 150.5,149.5C 153.899,146.427 157.232,143.427 160.5,140.5 Z"/></g>
<g><path style="opacity:1" fill="#ad9768" d="M 268.5,163.5 C 264.393,176.387 257.726,187.72 248.5,197.5C 248.167,197.5 247.833,197.5 247.5,197.5C 247.423,196.25 246.756,195.417 245.5,195C 246.793,194.51 248.127,194.343 249.5,194.5C 249.5,193.5 249.5,192.5 249.5,191.5C 256.55,184.539 262.05,175.872 266,165.5C 266.708,164.619 267.542,163.953 268.5,163.5 Z"/></g>
<g><path style="opacity:1" fill="#c8b487" d="M 254.5,143.5 C 255.726,158.927 252.059,173.261 243.5,186.5C 239.833,191.167 236.167,195.833 232.5,200.5C 230.37,202.127 228.37,203.96 226.5,206C 225.552,206.483 224.552,206.649 223.5,206.5C 242.596,189.974 252.929,168.974 254.5,143.5 Z"/></g>
<g><path style="opacity:1" fill="#bfae7e" d="M 116.5,176.5 C 119.076,176.722 119.91,178.055 119,180.5C 114.706,183.07 110.873,186.237 107.5,190C 106.833,190.667 106.167,190.667 105.5,190C 104.253,188.506 104.253,187.006 105.5,185.5C 109.501,182.825 113.168,179.825 116.5,176.5 Z"/></g>
<g><path style="opacity:1" fill="#c2b892" d="M 201.5,179.5 C 201.94,181.844 202.94,183.844 204.5,185.5C 200.419,189.386 195.752,192.552 190.5,195C 186.689,196.739 182.689,197.572 178.5,197.5C 175.813,197.664 173.146,197.497 170.5,197C 172.708,196.809 174.708,196.309 176.5,195.5C 185.539,194.228 193.705,190.895 201,185.5C 201.495,183.527 201.662,181.527 201.5,179.5 Z"/></g>
<g><path style="opacity:1" fill="#8d7c59" d="M 137.5,176.5 C 134.5,180.328 134.833,183.828 138.5,187C 147.087,193.361 156.754,196.194 167.5,195.5C 168.167,171.5 168.833,171.5 169.5,195.5C 171.833,195.5 174.167,195.5 176.5,195.5C 174.708,196.309 172.708,196.809 170.5,197C 173.146,197.497 175.813,197.664 178.5,197.5C 158.132,201.489 140.798,195.822 126.5,180.5C 127.167,180.5 127.833,180.5 128.5,180.5C 129.401,182.727 131.067,183.727 133.5,183.5C 133.124,180.077 134.457,177.744 137.5,176.5 Z"/></g>
<g><path style="opacity:1" fill="#c7b482" d="M 220.5,176.5 C 225.012,178.497 228.845,181.497 232,185.5C 232.187,194.34 228.02,197.173 219.5,194C 217.333,191.833 215.167,189.667 213,187.5C 212.217,185.681 212.717,184.348 214.5,183.5C 217.354,186.188 220.354,188.688 223.5,191C 224.784,191.684 225.951,191.517 227,190.5C 227.798,188.741 227.631,187.074 226.5,185.5C 224.424,183.712 222.257,182.046 220,180.5C 219.421,179.072 219.588,177.738 220.5,176.5 Z"/></g>
<g><path style="opacity:1" fill="#cfb369" d="M 93.5,188.5 C 96.2948,189.063 98.6282,190.396 100.5,192.5C 100.539,193.583 100.873,194.583 101.5,195.5C 104.855,199.187 108.189,202.853 111.5,206.5C 109.856,206.714 108.356,206.38 107,205.5C 106.667,206.833 106.333,208.167 106,209.5C 104.599,207.808 102.766,207.141 100.5,207.5C 94.2729,203.945 88.9396,199.278 84.5,193.5C 86.371,193.859 87.871,194.859 89,196.5C 89.5,196 90,195.5 90.5,195C 90.1667,194 89.8333,193 89.5,192C 91.5503,191.584 92.8836,190.417 93.5,188.5 Z"/></g>
<g><path style="opacity:1" fill="#a59062" d="M 121.5,183.5 C 127.759,185.235 130.592,189.235 130,195.5C 127.757,196.971 125.257,197.971 122.5,198.5C 121.965,200.661 121.132,202.661 120,204.5C 118.701,203.91 117.868,202.91 117.5,201.5C 118.467,199.238 119.134,196.905 119.5,194.5C 118.448,194.351 117.448,194.517 116.5,195C 114.77,199.376 112.77,199.542 110.5,195.5C 114.189,191.48 117.855,187.48 121.5,183.5 Z"/></g>
<g><path style="opacity:1" fill="#1b110a" d="M 122.5,188.5 C 124.145,189.479 125.479,190.812 126.5,192.5C 122.14,194.14 120.807,192.807 122.5,188.5 Z"/></g>
<g><path style="opacity:1" fill="#ccae69" d="M 243.5,186.5 C 244.497,186.47 245.164,186.97 245.5,188C 244.852,189.44 244.519,190.94 244.5,192.5C 246.216,192.371 247.883,192.038 249.5,191.5C 249.5,192.5 249.5,193.5 249.5,194.5C 248.127,194.343 246.793,194.51 245.5,195C 246.756,195.417 247.423,196.25 247.5,197.5C 244.767,200.239 241.767,202.573 238.5,204.5C 236.231,203.563 234.231,202.23 232.5,200.5C 236.167,195.833 239.833,191.167 243.5,186.5 Z"/></g>
<g><path style="opacity:1" fill="#cebf91" d="M 204.5,191.5 C 205.552,191.351 206.552,191.517 207.5,192C 210.224,195.294 213.057,198.461 216,201.5C 217.626,200.711 219.126,199.711 220.5,198.5C 221.72,198.887 222.387,199.72 222.5,201C 220.049,203.398 217.382,205.564 214.5,207.5C 211.574,203.318 208.407,199.318 205,195.5C 204.51,194.207 204.343,192.873 204.5,191.5 Z"/></g>
<g><path style="opacity:1" fill="#beac82" d="M 100.5,192.5 C 104.269,196.771 108.269,200.938 112.5,205C 119.06,209.771 125.726,214.271 132.5,218.5C 130.297,218.396 128.297,217.73 126.5,216.5C 121.505,213.174 116.505,209.841 111.5,206.5C 108.189,202.853 104.855,199.187 101.5,195.5C 100.873,194.583 100.539,193.583 100.5,192.5 Z"/></g>
<g><path style="opacity:1" fill="#463617" d="M 74.5,186.5 C 76.4308,187.259 77.9308,188.593 79,190.5C 79.3826,189.944 79.8826,189.611 80.5,189.5C 81.5,191.167 82.8333,192.5 84.5,193.5C 88.9396,199.278 94.2729,203.945 100.5,207.5C 103.125,210.815 106.458,213.149 110.5,214.5C 117.177,218.46 124.177,221.96 131.5,225C 136.68,225.876 141.68,227.209 146.5,229C 158.726,231.214 171.059,232.048 183.5,231.5C 141.828,235.999 106.661,222.999 78,192.5C 76.6063,190.612 75.4396,188.612 74.5,186.5 Z"/></g>
<g><path style="opacity:1" fill="#8c764e" d="M 133.5,195.5 C 139.235,194.535 143.568,196.535 146.5,201.5C 144.302,204.243 142.302,204.077 140.5,201C 133.757,199.47 131.757,201.97 134.5,208.5C 137.155,210.02 137.822,209.52 136.5,207C 136.613,205.72 137.28,204.887 138.5,204.5C 140.547,205.185 142.214,206.351 143.5,208C 139.317,216.202 134.483,216.369 129,208.5C 128.333,205.833 128.333,203.167 129,200.5C 130.707,198.963 132.207,197.296 133.5,195.5 Z"/></g>
<g><path style="opacity:1" fill="#ccbc8c" d="M 196.5,195.5 C 198.833,195.5 201.167,195.5 203.5,195.5C 203.5,196.833 203.5,198.167 203.5,199.5C 197.501,199.002 195.334,201.669 197,207.5C 200.413,210.256 203.58,209.923 206.5,206.5C 208.39,206.869 209.224,207.869 209,209.5C 202.833,216.412 197.167,216.079 192,208.5C 191.333,205.833 191.333,203.167 192,200.5C 193.707,198.963 195.207,197.296 196.5,195.5 Z"/></g>
<g><path style="opacity:1" fill="#927c53" d="M 148.5,200.5 C 149.822,200.33 150.989,200.663 152,201.5C 151.857,206.08 152.024,210.58 152.5,215C 154.112,215.72 155.612,215.554 157,214.5C 157.548,210.83 158.048,207.163 158.5,203.5C 160.167,203.5 161.833,203.5 163.5,203.5C 163.856,209.939 161.856,215.439 157.5,220C 153.418,221.293 150.251,220.126 148,216.5C 147.568,211.154 147.734,205.82 148.5,200.5 Z"/></g>
<g><path style="opacity:1" fill="#aa8c4d" d="M 111.5,206.5 C 116.505,209.841 121.505,213.174 126.5,216.5C 121.031,216.593 115.697,215.926 110.5,214.5C 106.458,213.149 103.125,210.815 100.5,207.5C 102.766,207.141 104.599,207.808 106,209.5C 106.333,208.167 106.667,206.833 107,205.5C 108.356,206.38 109.856,206.714 111.5,206.5 Z"/></g>
<g><path style="opacity:1" fill="#bdaa78" d="M 172.5,213.5 C 172.44,212.957 172.107,212.624 171.5,212.5C 170.52,215.086 170.187,217.753 170.5,220.5C 169.5,220.5 168.5,220.5 167.5,220.5C 167.819,215.637 167.486,210.97 166.5,206.5C 166.281,205.325 166.614,204.325 167.5,203.5C 170.52,206.355 173.687,209.021 177,211.5C 177.497,208.854 177.664,206.187 177.5,203.5C 178.833,203.5 180.167,203.5 181.5,203.5C 182.248,209.2 182.248,214.867 181.5,220.5C 178.195,218.525 175.195,216.191 172.5,213.5 Z"/></g>
<g><path style="opacity:1" fill="#534524" d="M 247.5,197.5 C 247.833,197.5 248.167,197.5 248.5,197.5C 232.133,215.852 211.8,227.186 187.5,231.5C 187.833,230.833 188.167,230.167 188.5,229.5C 193.739,228.659 198.739,227.326 203.5,225.5C 216.962,221.278 228.628,214.278 238.5,204.5C 241.767,202.573 244.767,200.239 247.5,197.5 Z"/></g>
<g><path style="opacity:1" fill="#74664a" d="M 166.5,206.5 C 167.486,210.97 167.819,215.637 167.5,220.5C 168.5,220.5 169.5,220.5 170.5,220.5C 170.187,217.753 170.52,215.086 171.5,212.5C 172.107,212.624 172.44,212.957 172.5,213.5C 171.527,215.948 171.194,218.615 171.5,221.5C 169.833,221.5 168.167,221.5 166.5,221.5C 166.5,216.5 166.5,211.5 166.5,206.5 Z"/></g>
<g><path style="opacity:1" fill="#ddcb8f" d="M 232.5,200.5 C 234.231,202.23 236.231,203.563 238.5,204.5C 228.628,214.278 216.962,221.278 203.5,225.5C 192.034,225.537 180.534,226.203 169,227.5C 164.465,227.404 159.965,227.07 155.5,226.5C 155.842,225.662 156.508,225.328 157.5,225.5C 182.091,227.63 204.091,221.297 223.5,206.5C 224.552,206.649 225.552,206.483 226.5,206C 228.37,203.96 230.37,202.127 232.5,200.5 Z"/></g>
<g><path style="opacity:1" fill="#947947" d="M 110.5,214.5 C 115.697,215.926 121.031,216.593 126.5,216.5C 128.297,217.73 130.297,218.396 132.5,218.5C 140.852,221.066 149.186,223.399 157.5,225.5C 156.508,225.328 155.842,225.662 155.5,226.5C 155.196,227.15 154.863,227.817 154.5,228.5C 165.768,230.743 177.101,231.077 188.5,229.5C 188.167,230.167 187.833,230.833 187.5,231.5C 186.167,231.5 184.833,231.5 183.5,231.5C 171.059,232.048 158.726,231.214 146.5,229C 141.68,227.209 136.68,225.876 131.5,225C 124.177,221.96 117.177,218.46 110.5,214.5 Z"/></g>
<g><path style="opacity:1" fill="#c1aa6d" d="M 203.5,225.5 C 198.739,227.326 193.739,228.659 188.5,229.5C 177.101,231.077 165.768,230.743 154.5,228.5C 154.863,227.817 155.196,227.15 155.5,226.5C 159.965,227.07 164.465,227.404 169,227.5C 180.534,226.203 192.034,225.537 203.5,225.5 Z"/></g>
<g><path style="opacity:1" fill="#1e191e" d="M -0.5,239.5 C 94.8333,239.5 190.167,239.5 285.5,239.5C 285.5,241.5 285.5,243.5 285.5,245.5C 190.167,245.5 94.8333,245.5 -0.5,245.5C -0.5,243.5 -0.5,241.5 -0.5,239.5 Z"/></g>
</svg>
